<svg width="148" height="74" viewBox="0 0 148 74" fill="none" xmlns="http://www.w3.org/2000/svg">
<path d="M35.2007 11.4342V62.6629H12.2666C13.4267 57.675 16.2104 53.0983 20.2732 49.4996C24.336 45.9009 29.4993 43.4382 35.1241 42.4163C35.1241 42.2414 35.1241 42.0762 35.0365 41.9014H12.3761L12.0475 42.1831C8.23776 45.5442 5.21265 49.5387 3.14537 53.9382C1.0781 58.3376 0.00924086 63.0555 0 67.8218V73H46.7335V41.9111V11.3468H46.8321H69.7663C68.7715 15.6264 66.5802 19.6156 63.3939 22.948C60.2075 26.2803 56.1282 28.849 51.5306 30.4179V31.574H70.2482C77.7811 24.8069 82.0035 15.6787 82 6.16853V1H35.2007V11.4342Z" fill="#0ADD18"/>
<path d="M34.8365 42H35V11.1009L34.6403 10.766C30.8641 7.34542 26.3767 4.63331 21.4364 2.78567C16.496 0.938038 11.2001 -0.00865198 5.85332 5.95807e-05H0V42H34.8801H34.8365ZM11.5867 31.5197V10.9827C17.2038 12.002 22.3645 14.493 26.4254 18.1451C30.4862 21.7972 33.2675 26.4487 34.4223 31.5197H11.5867Z" fill="#0E079E"/>
<path d="M51 41.4656H69.911V61.9836C64.041 60.9712 58.6514 58.4683 54.4281 54.7934C53.1772 53.704 52.0378 52.5225 51.0227 51.2623V66.0164C58.2593 70.5595 66.9682 73.0038 75.9044 73H82V31H51V41.4656Z" fill="#0E079E"/>
<path d="M93.9816 38L93.4891 36.7278H90.3803L89.8776 38H87.9487L91.037 30.8077H92.9658L95.9823 38H93.9816ZM90.9446 35.2914H92.9351L91.9501 32.7264L90.9446 35.2914ZM101.645 33.2496C101.412 32.9555 101.135 32.7229 100.814 32.5519C100.492 32.3741 100.174 32.2852 99.8594 32.2852C99.4968 32.2852 99.1651 32.3775 98.8641 32.5622C98.57 32.74 98.3375 32.9897 98.1665 33.3112C97.9955 33.6258 97.91 33.9781 97.91 34.368C97.91 34.7578 97.9955 35.1135 98.1665 35.435C98.3375 35.7496 98.57 35.9993 98.8641 36.184C99.1651 36.3618 99.4968 36.4507 99.8594 36.4507C100.153 36.4507 100.461 36.3755 100.783 36.225C101.104 36.0745 101.392 35.8693 101.645 35.6094L102.742 36.7893C102.353 37.1997 101.887 37.528 101.347 37.7743C100.814 38.0137 100.283 38.1334 99.7568 38.1334C99.0454 38.1334 98.4024 37.9692 97.8279 37.6409C97.2533 37.3126 96.8019 36.8646 96.4736 36.2968C96.1452 35.7291 95.9811 35.093 95.9811 34.3885C95.9811 33.6908 96.1487 33.0615 96.4838 32.5006C96.819 31.9398 97.2773 31.4986 97.8587 31.1771C98.4469 30.8556 99.1035 30.6949 99.8286 30.6949C100.362 30.6949 100.889 30.8077 101.409 31.0335C101.928 31.2523 102.37 31.5533 102.732 31.9363L101.645 33.2496ZM108.628 33.2496C108.396 32.9555 108.119 32.7229 107.797 32.5519C107.476 32.3741 107.158 32.2852 106.843 32.2852C106.48 32.2852 106.149 32.3775 105.848 32.5622C105.554 32.74 105.321 32.9897 105.15 33.3112C104.979 33.6258 104.894 33.9781 104.894 34.368C104.894 34.7578 104.979 35.1135 105.15 35.435C105.321 35.7496 105.554 35.9993 105.848 36.184C106.149 36.3618 106.48 36.4507 106.843 36.4507C107.137 36.4507 107.445 36.3755 107.766 36.225C108.088 36.0745 108.375 35.8693 108.628 35.6094L109.726 36.7893C109.336 37.1997 108.871 37.528 108.331 37.7743C107.797 38.0137 107.267 38.1334 106.74 38.1334C106.029 38.1334 105.386 37.9692 104.811 37.6409C104.237 37.3126 103.785 36.8646 103.457 36.2968C103.129 35.7291 102.965 35.093 102.965 34.3885C102.965 33.6908 103.132 33.0615 103.467 32.5006C103.803 31.9398 104.261 31.4986 104.842 31.1771C105.431 30.8556 106.087 30.6949 106.812 30.6949C107.346 30.6949 107.872 30.8077 108.392 31.0335C108.912 31.2523 109.353 31.5533 109.716 31.9363L108.628 33.2496ZM110.53 30.8077H116.204V32.3057H112.408V33.6498H115.835V35.1375L112.408 35.1477V36.502H116.307V38H110.53V30.8077ZM122.368 30.8077H124.112V38H122.471L119.208 33.7011V38H117.454V30.8077H119.106L122.379 35.1375L122.368 30.8077ZM124.894 30.8077H131.06V32.357H128.905V38H127.028V32.357H124.894V30.8077Z" fill="#0ADD18"/>
<path d="M93.9816 49L93.4891 47.7278H90.3803L89.8776 49H87.9487L91.037 41.8077H92.9658L95.9823 49H93.9816ZM90.9446 46.2914H92.9351L91.9501 43.7264L90.9446 46.2914ZM96.6331 41.8077H102.009L101.999 43.3057H98.5107V44.9063H101.732V46.4042H98.5107V49H96.6331V41.8077ZM107.185 49L106.138 47.0096H106.097H104.743V49H102.865V41.8077H106.097C107.048 41.8077 107.783 42.03 108.303 42.4746C108.83 42.9124 109.093 43.5314 109.093 44.3317C109.093 44.8721 108.984 45.3406 108.765 45.7373C108.546 46.1272 108.228 46.4316 107.811 46.6505L109.309 49H107.185ZM104.743 45.5116H106.107C106.49 45.5116 106.785 45.4158 106.99 45.2243C107.202 45.0328 107.308 44.7558 107.308 44.3933C107.308 44.0444 107.202 43.7777 106.99 43.593C106.785 43.4015 106.49 43.3057 106.107 43.3057H104.743V45.5116ZM110.29 41.8077H112.167V49H110.29V41.8077ZM118.768 44.2496C118.535 43.9555 118.258 43.7229 117.937 43.5519C117.615 43.3741 117.297 43.2852 116.983 43.2852C116.62 43.2852 116.288 43.3775 115.988 43.5622C115.693 43.74 115.461 43.9897 115.29 44.3112C115.119 44.6258 115.033 44.9781 115.033 45.368C115.033 45.7578 115.119 46.1135 115.29 46.435C115.461 46.7496 115.693 46.9993 115.988 47.184C116.288 47.3618 116.62 47.4507 116.983 47.4507C117.277 47.4507 117.585 47.3755 117.906 47.225C118.228 47.0745 118.515 46.8693 118.768 46.6094L119.866 47.7893C119.476 48.1997 119.011 48.528 118.47 48.7743C117.937 49.0137 117.407 49.1334 116.88 49.1334C116.169 49.1334 115.526 48.9692 114.951 48.6409C114.377 48.3126 113.925 47.8646 113.597 47.2968C113.269 46.7291 113.104 46.093 113.104 45.3885C113.104 44.6908 113.272 44.0615 113.607 43.5006C113.942 42.9398 114.401 42.4986 114.982 42.1771C115.57 41.8556 116.227 41.6949 116.952 41.6949C117.485 41.6949 118.012 41.8077 118.532 42.0335C119.052 42.2523 119.493 42.5533 119.856 42.9363L118.768 44.2496ZM125.874 49L125.381 47.7278H122.272L121.77 49H119.841L122.929 41.8077H124.858L127.874 49H125.874ZM122.837 46.2914H124.827L123.842 43.7264L122.837 46.2914Z" fill="#0E079E"/>
<path d="M93.9816 59L93.4891 57.7278H90.3803L89.8776 59H87.9487L91.037 51.8077H92.9658L95.9823 59H93.9816ZM90.9446 56.2914H92.9351L91.9501 53.7264L90.9446 56.2914ZM96.6331 51.8077H98.5107V57.3994H101.558V59H96.6331V51.8077ZM102.414 51.8077H104.292V57.3994H107.339V59H102.414V51.8077ZM108.196 51.8077H110.073V59H108.196V51.8077ZM116.756 59L116.263 57.7278H113.155L112.652 59H110.723L113.811 51.8077H115.74L118.757 59H116.756ZM113.719 56.2914H115.709L114.724 53.7264L113.719 56.2914ZM124.322 51.8077H126.066V59H124.425L121.162 54.7011V59H119.408V51.8077H121.059L124.332 56.1375L124.322 51.8077ZM132.675 54.2496C132.443 53.9555 132.166 53.7229 131.844 53.5519C131.523 53.3741 131.204 53.2852 130.89 53.2852C130.527 53.2852 130.196 53.3775 129.895 53.5622C129.601 53.74 129.368 53.9897 129.197 54.3112C129.026 54.6258 128.94 54.9781 128.94 55.368C128.94 55.7578 129.026 56.1135 129.197 56.435C129.368 56.7496 129.601 56.9993 129.895 57.184C130.196 57.3618 130.527 57.4507 130.89 57.4507C131.184 57.4507 131.492 57.3755 131.813 57.225C132.135 57.0745 132.422 56.8693 132.675 56.6094L133.773 57.7893C133.383 58.1997 132.918 58.528 132.378 58.7743C131.844 59.0137 131.314 59.1334 130.787 59.1334C130.076 59.1334 129.433 58.9692 128.858 58.6409C128.284 58.3126 127.832 57.8646 127.504 57.2968C127.176 56.7291 127.012 56.093 127.012 55.3885C127.012 54.6908 127.179 54.0615 127.514 53.5006C127.849 52.9398 128.308 52.4986 128.889 52.1771C129.477 51.8556 130.134 51.6949 130.859 51.6949C131.393 51.6949 131.919 51.8077 132.439 52.0335C132.959 52.2523 133.4 52.5533 133.763 52.9363L132.675 54.2496ZM134.577 51.8077H140.251V53.3057H136.455V54.6498H139.882V56.1375L136.455 56.1477V57.502H140.353V59H134.577V51.8077Z" fill="#0E079E"/>
<path d="M87.6977 62.8077H89.5753V68.3994H92.6225V70H87.6977V62.8077ZM93.4789 62.8077H95.3565V70H93.4789V62.8077ZM96.7553 62.8077H98.7971L100.88 67.0143L102.952 62.8077H104.994V70H103.332L103.322 65.4446L101.485 69.2818H100.275L98.4277 65.4446V70H96.7553V62.8077ZM106.394 62.8077H108.272V70H106.394V62.8077ZM109.045 62.8077H115.211V64.357H113.056V70H111.179V64.357H109.045V62.8077ZM115.973 62.8077H121.647V64.3057H117.85V65.6498H121.277V67.1375L117.85 67.1477V68.502H121.749V70H115.973V62.8077ZM125.995 62.8077C126.747 62.8077 127.411 62.9582 127.985 63.2592C128.567 63.5601 129.018 63.9842 129.34 64.5314C129.661 65.0718 129.822 65.6942 129.822 66.3987C129.822 67.1033 129.658 67.7291 129.329 68.2763C129.008 68.8235 128.55 69.2476 127.954 69.5486C127.366 69.8495 126.689 70 125.923 70H122.896V62.8077H125.995ZM126.046 68.4815C126.409 68.4815 126.73 68.396 127.011 68.225C127.291 68.054 127.51 67.8112 127.667 67.4966C127.825 67.1819 127.903 66.8228 127.903 66.4193C127.903 66.0089 127.818 65.6463 127.647 65.3317C127.483 65.0171 127.253 64.7742 126.959 64.6032C126.665 64.4254 126.33 64.3365 125.954 64.3365H124.774V68.4815H126.046Z" fill="#0E079E"/>
</svg>
