<svg width="418" height="333" viewBox="0 0 418 333" fill="none" xmlns="http://www.w3.org/2000/svg">
<path fill-rule="evenodd" clip-rule="evenodd" d="M369.595 143C352.674 108.665 326.384 79.7336 293.714 59.4973C261.044 39.2609 223.307 28.5324 184.797 28.5324C146.287 28.5324 108.551 39.2609 75.8809 59.4973C43.2112 79.7336 16.9204 108.665 0 143C29.8612 54.236 115.466 -4.0643 209.659 0.221411C297.363 4.21484 372.655 61.5715 400 143H369.595Z" fill="#050577"/>
<path fill-rule="evenodd" clip-rule="evenodd" d="M284.451 143C263.618 110.059 231.427 83.6834 193.607 70.54C135.135 50.2022 74.8306 65.4333 41 109.083C71.4497 54.3365 138.186 31.4564 204.438 53.059C250.22 67.9946 288.094 101.679 309 142.99L284.451 143Z" fill="#FF0000"/>
<path fill-rule="evenodd" clip-rule="evenodd" d="M200.022 143C188.914 122.227 170.86 105.936 148.96 96.9225C127.059 87.9091 102.678 86.7357 80 93.6037C92.1951 87.1222 105.629 83.257 119.429 82.2591C133.228 81.2612 147.086 83.1529 160.1 87.8113C173.114 92.4698 184.995 99.7908 194.97 109.299C204.945 118.807 212.792 130.289 218 143H200.022Z" fill="#050577"/>
<path d="M47.9 161C55.6333 161 61.7333 162.567 66.2 165.7C70.6667 168.833 72.9 173.1 72.9 178.5C72.9 182.233 71.8 185.5 69.6 188.3C67.4667 191.033 64.5333 192.9 60.8 193.9C65.3333 194.767 68.9 196.8 71.5 200C74.1 203.133 75.4 207 75.4 211.6C75.4 217.6 73.0333 222.333 68.3 225.8C63.5667 229.267 57.1333 231 49 231H15.7V161H47.9ZM47.1 189.2C50.1 189.2 52.4333 188.533 54.1 187.2C55.8333 185.8 56.7 183.867 56.7 181.4C56.7 179 55.8333 177.133 54.1 175.8C52.4333 174.467 50.1 173.833 47.1 173.9H31.5V189.2H47.1ZM47.1 218.1C50.8333 218.1 53.7667 217.367 55.9 215.9C58.0333 214.367 59.1 212.267 59.1 209.6C59.1 207.067 58.0333 205.067 55.9 203.6C53.7667 202.133 50.8333 201.433 47.1 201.5H31.5V218.1H47.1ZM129.891 231L118.791 211H117.291H102.691V231H86.8914V161H117.291C126.425 161 133.491 163.133 138.491 167.4C143.491 171.6 145.991 177.567 145.991 185.3C145.991 190.7 144.858 195.333 142.591 199.2C140.391 203 137.158 205.9 132.891 207.9L147.791 231H129.891ZM102.691 197.8H117.291C121.691 197.8 125.058 196.8 127.391 194.8C129.791 192.733 130.991 189.733 130.991 185.8C130.991 181.933 129.791 179.033 127.391 177.1C125.058 175.1 121.691 174.1 117.291 174.1H102.691V197.8ZM159.255 161H175.055V231H159.255V161ZM220.302 161C227.436 161 233.802 162.5 239.402 165.5C245.002 168.433 249.336 172.567 252.402 177.9C255.536 183.167 257.102 189.2 257.102 196C257.102 202.8 255.502 208.867 252.302 214.2C249.169 219.467 244.769 223.6 239.102 226.6C233.436 229.533 226.969 231 219.702 231H190.602V161H220.302ZM220.702 217.7C224.569 217.7 228.036 216.8 231.102 215C234.236 213.133 236.669 210.567 238.402 207.3C240.136 204.033 241.002 200.3 241.002 196.1C241.002 191.9 240.069 188.133 238.202 184.8C236.402 181.467 233.902 178.9 230.702 177.1C227.569 175.233 224.002 174.3 220.002 174.3H206.402V217.7H220.702ZM312.7 195.7H326.4V222.9C322.667 225.633 318.2 227.867 313 229.6C307.8 231.267 302.8 232.1 298 232.1C291 232.1 284.667 230.533 279 227.4C273.333 224.2 268.867 219.867 265.6 214.4C262.333 208.867 260.7 202.7 260.7 195.9C260.7 189.167 262.367 183.067 265.7 177.6C269.033 172.067 273.6 167.733 279.4 164.6C285.267 161.467 291.767 159.9 298.9 159.9C304.1 159.9 309.167 160.833 314.1 162.7C319.1 164.567 323.4 167.1 327 170.3L318.1 181.6C315.5 179.133 312.5 177.2 309.1 175.8C305.7 174.4 302.3 173.7 298.9 173.7C294.833 173.7 291.1 174.7 287.7 176.7C284.367 178.633 281.733 181.3 279.8 184.7C277.867 188.033 276.9 191.767 276.9 195.9C276.9 200.033 277.867 203.833 279.8 207.3C281.8 210.7 284.467 213.4 287.8 215.4C291.2 217.333 294.933 218.3 299 218.3C301.067 218.3 303.3 217.967 305.7 217.3C308.1 216.567 310.433 215.6 312.7 214.4V195.7ZM340.212 161H393.512V174.1H356.012V189.3H389.712V202.4H356.012V217.9H394.612V231H340.212V161Z" fill="#050577"/>
<path d="M57.56 266.71C55.4 264.13 52.85 262.12 49.91 260.68C47.03 259.18 44.12 258.43 41.18 258.43C37.64 258.43 34.4 259.3 31.46 261.04C28.52 262.78 26.21 265.15 24.53 268.15C22.85 271.15 22.01 274.48 22.01 278.14C22.01 281.8 22.85 285.16 24.53 288.22C26.21 291.22 28.52 293.62 31.46 295.42C34.4 297.16 37.64 298.03 41.18 298.03C44 298.03 46.85 297.37 49.73 296.05C52.67 294.67 55.28 292.84 57.56 290.56L65.93 299.65C62.57 303.13 58.61 305.89 54.05 307.93C49.55 309.97 45.02 310.99 40.46 310.99C34.28 310.99 28.67 309.58 23.63 306.76C18.59 303.88 14.63 299.95 11.75 294.97C8.87 289.99 7.43 284.44 7.43 278.32C7.43 272.26 8.9 266.77 11.84 261.85C14.78 256.93 18.8 253.06 23.9 250.24C29.06 247.42 34.76 246.01 41 246.01C45.56 246.01 50.06 246.97 54.5 248.89C58.94 250.75 62.72 253.3 65.84 256.54L57.56 266.71ZM102.618 246.01C108.918 246.01 114.648 247.42 119.808 250.24C124.968 253.06 129.018 256.96 131.958 261.94C134.958 266.86 136.458 272.35 136.458 278.41C136.458 284.47 134.958 289.99 131.958 294.97C129.018 299.95 124.968 303.88 119.808 306.76C114.648 309.58 108.918 310.99 102.618 310.99C96.3177 310.99 90.5877 309.58 85.4277 306.76C80.2677 303.88 76.1877 299.98 73.1877 295.06C70.2477 290.08 68.7777 284.53 68.7777 278.41C68.7777 272.35 70.2477 266.86 73.1877 261.94C76.1877 256.96 80.2377 253.06 85.3377 250.24C90.4977 247.42 96.2577 246.01 102.618 246.01ZM102.798 258.43C99.3177 258.43 96.0777 259.33 93.0777 261.13C90.0777 262.87 87.7077 265.27 85.9677 268.33C84.2277 271.39 83.3577 274.75 83.3577 278.41C83.3577 282.13 84.2277 285.52 85.9677 288.58C87.7677 291.64 90.1377 294.07 93.0777 295.87C96.0777 297.67 99.3177 298.57 102.798 298.57C106.278 298.57 109.458 297.7 112.338 295.96C115.278 294.16 117.588 291.73 119.268 288.67C121.008 285.55 121.878 282.13 121.878 278.41C121.878 274.75 121.008 271.39 119.268 268.33C117.588 265.27 115.278 262.87 112.338 261.13C109.458 259.33 106.278 258.43 102.798 258.43ZM158.927 283.99C158.927 288.49 160.187 292.06 162.707 294.7C165.287 297.28 168.707 298.57 172.967 298.57C177.107 298.57 180.407 297.28 182.867 294.7C185.327 292.12 186.557 288.55 186.557 283.99V247H200.777V283.99C200.777 289.51 199.637 294.31 197.357 298.39C195.137 302.41 191.927 305.53 187.727 307.75C183.527 309.91 178.577 310.99 172.877 310.99C167.177 310.99 162.197 309.91 157.937 307.75C153.677 305.53 150.407 302.41 148.127 298.39C145.847 294.31 144.707 289.51 144.707 283.99V247H158.927V283.99ZM257.111 247H270.611V310H257.651L227.141 269.5V310H213.551V247H226.511L257.111 287.68V247ZM330.109 266.71C327.949 264.13 325.399 262.12 322.459 260.68C319.579 259.18 316.669 258.43 313.729 258.43C310.189 258.43 306.949 259.3 304.009 261.04C301.069 262.78 298.759 265.15 297.079 268.15C295.399 271.15 294.559 274.48 294.559 278.14C294.559 281.8 295.399 285.16 297.079 288.22C298.759 291.22 301.069 293.62 304.009 295.42C306.949 297.16 310.189 298.03 313.729 298.03C316.549 298.03 319.399 297.37 322.279 296.05C325.219 294.67 327.829 292.84 330.109 290.56L338.479 299.65C335.119 303.13 331.159 305.89 326.599 307.93C322.099 309.97 317.569 310.99 313.009 310.99C306.829 310.99 301.219 309.58 296.179 306.76C291.139 303.88 287.179 299.95 284.299 294.97C281.419 289.99 279.979 284.44 279.979 278.32C279.979 272.26 281.449 266.77 284.389 261.85C287.329 256.93 291.349 253.06 296.449 250.24C301.609 247.42 307.309 246.01 313.549 246.01C318.109 246.01 322.609 246.97 327.049 248.89C331.489 250.75 335.269 253.3 338.389 256.54L330.109 266.71ZM346.969 247H361.189V310H346.969V247ZM375.182 247H389.402V297.58H416.402V310H375.182V247Z" fill="#050577"/>
</svg>
