<svg width="94" height="72" viewBox="0 0 94 72" fill="none" xmlns="http://www.w3.org/2000/svg">
<path fill-rule="evenodd" clip-rule="evenodd" d="M82.537 30C78.936 22.8047 73.3474 16.7429 66.4059 12.5034C59.4645 8.2638 51.4485 6.01638 43.2685 6.01638C35.0886 6.01638 27.0726 8.2638 20.1311 12.5034C13.1896 16.7429 7.601 22.8047 4 30C6.97554 21.2635 12.681 13.6653 20.3084 8.28122C27.9359 2.89714 37.0988 0 46.5 0C55.9012 0 65.0642 2.89714 72.6916 8.28122C80.3191 13.6653 86.0245 21.2635 89 30H82.537Z" fill="#050577"/>
<path fill-rule="evenodd" clip-rule="evenodd" d="M63.9056 30C59.468 22.7933 52.7663 17.3189 44.8853 14.4632C32.6703 10.1129 20.0346 13.3756 13 22.7074C19.356 10.9965 33.3011 6.10241 47.1506 10.7246C56.645 13.9812 64.4947 20.9061 69 30H63.9056Z" fill="#FF0000"/>
<path fill-rule="evenodd" clip-rule="evenodd" d="M45.2212 30C42.8864 25.5704 39.0927 22.0963 34.4909 20.1737C29.8891 18.2511 24.7659 17.9997 20 19.4626C22.5638 18.085 25.3865 17.2644 28.2854 17.0541C31.1843 16.8438 34.0948 17.2483 36.8285 18.2417C39.5622 19.235 42.0582 20.7948 44.1548 22.8204C46.2515 24.8459 47.9022 27.2919 49 30H45.2212Z" fill="#050577"/>
<path d="M9.55206 32.242C11.4034 32.242 12.8638 32.6171 13.9331 33.3672C15.0024 34.1173 15.5371 35.1387 15.5371 36.4315C15.5371 37.3253 15.2737 38.1073 14.747 38.7776C14.2363 39.432 13.5341 39.8789 12.6403 40.1183C13.7256 40.3257 14.5795 40.8125 15.2019 41.5786C15.8243 42.3287 16.1356 43.2544 16.1356 44.3556C16.1356 45.792 15.569 46.9252 14.4358 47.7551C13.3027 48.585 11.7625 49 9.8154 49H1.84338V32.242H9.55206ZM9.36054 38.9931C10.0787 38.9931 10.6373 38.8335 11.0363 38.5143C11.4513 38.1791 11.6588 37.7163 11.6588 37.1258C11.6588 36.5512 11.4513 36.1043 11.0363 35.7851C10.6373 35.4659 10.0787 35.3143 9.36054 35.3303H5.6259V38.9931H9.36054ZM9.36054 45.9117C10.2543 45.9117 10.9565 45.7362 11.4673 45.3851C11.978 45.018 12.2333 44.5152 12.2333 43.8768C12.2333 43.2704 11.978 42.7916 11.4673 42.4404C10.9565 42.0893 10.2543 41.9217 9.36054 41.9377H5.6259V45.9117H9.36054ZM29.1808 49L26.5235 44.212H26.1644H22.6691V49H18.8866V32.242H26.1644C28.3509 32.242 30.0426 32.7527 31.2396 33.7742C32.4366 34.7796 33.0351 36.2081 33.0351 38.0594C33.0351 39.3522 32.7638 40.4614 32.2212 41.3871C31.6945 42.2968 30.9204 42.9911 29.899 43.4699L33.4661 49H29.1808ZM22.6691 41.0519H26.1644C27.2177 41.0519 28.0237 40.8125 28.5823 40.3337C29.1569 39.839 29.4441 39.1208 29.4441 38.1791C29.4441 37.2534 29.1569 36.5592 28.5823 36.0963C28.0237 35.6175 27.2177 35.3781 26.1644 35.3781H22.6691V41.0519ZM36.2104 32.242H39.9929V49H36.2104V32.242ZM50.8252 32.242C52.5329 32.242 54.0571 32.6011 55.3977 33.3193C56.7384 34.0215 57.7758 35.0111 58.5099 36.2879C59.26 37.5487 59.6351 38.9931 59.6351 40.621C59.6351 42.2489 59.2521 43.7013 58.486 44.9781C57.7359 46.2389 56.6825 47.2284 55.3259 47.9466C53.9693 48.6489 52.4212 49 50.6815 49H43.715V32.242H50.8252ZM50.9209 45.816C51.8466 45.816 52.6765 45.6005 53.4107 45.1696C54.1608 44.7227 54.7434 44.1083 55.1583 43.3262C55.5733 42.5442 55.7808 41.6504 55.7808 40.6449C55.7808 39.6395 55.5573 38.7377 55.1104 37.9397C54.6795 37.1417 54.081 36.5273 53.3149 36.0963C52.5648 35.6495 51.711 35.426 50.7534 35.426H47.4975V45.816H50.9209ZM72.9452 40.5492H76.225V47.0609C75.3312 47.7152 74.2619 48.2499 73.017 48.6648C71.7721 49.0638 70.5751 49.2633 69.426 49.2633C67.7502 49.2633 66.234 48.8883 64.8774 48.1382C63.5208 47.3721 62.4515 46.3347 61.6694 45.026C60.8874 43.7013 60.4964 42.225 60.4964 40.5971C60.4964 38.9851 60.8954 37.5248 61.6934 36.216C62.4914 34.8914 63.5846 33.854 64.9732 33.1038C66.3776 32.3537 67.9337 31.9787 69.6415 31.9787C70.8863 31.9787 72.0993 32.2021 73.2803 32.649C74.4773 33.0959 75.5068 33.7023 76.3686 34.4684L74.2379 37.1736C73.6155 36.5831 72.8973 36.1203 72.0833 35.7851C71.2694 35.45 70.4554 35.2824 69.6415 35.2824C68.6679 35.2824 67.7741 35.5218 66.9602 36.0006C66.1622 36.4634 65.5318 37.1018 65.0689 37.9158C64.6061 38.7138 64.3747 39.6075 64.3747 40.5971C64.3747 41.5866 64.6061 42.4963 65.0689 43.3262C65.5477 44.1402 66.1861 44.7866 66.9841 45.2654C67.7981 45.7282 68.6918 45.9596 69.6654 45.9596C70.1602 45.9596 70.6948 45.8798 71.2694 45.7202C71.8439 45.5447 72.4025 45.3132 72.9452 45.026V40.5492ZM79.5315 32.242H92.2915V35.3781H83.314V39.017H91.3818V42.1532H83.314V45.8639H92.5549V49H79.5315V32.242Z" fill="#050577"/>
<path d="M11.8961 57.202C11.4072 56.6181 10.8301 56.1632 10.1646 55.8372C9.51279 55.4977 8.85416 55.328 8.18874 55.328C7.38752 55.328 6.6542 55.5249 5.98878 55.9187C5.32336 56.3125 4.80053 56.8489 4.42029 57.5279C4.04005 58.2069 3.84993 58.9606 3.84993 59.789C3.84993 60.6174 4.04005 61.3779 4.42029 62.0705C4.80053 62.7495 5.32336 63.2927 5.98878 63.7001C6.6542 64.0939 7.38752 64.2908 8.18874 64.2908C8.827 64.2908 9.47205 64.1414 10.1239 63.8426C10.7893 63.5303 11.38 63.1161 11.8961 62.6001L13.7905 64.6574C13.03 65.4451 12.1337 66.0698 11.1017 66.5315C10.0832 66.9932 9.05786 67.2241 8.02578 67.2241C6.62704 67.2241 5.35731 66.9049 4.21659 66.2667C3.07587 65.6148 2.17959 64.7253 1.52775 63.5982C0.87591 62.4711 0.54999 61.2149 0.54999 59.8298C0.54999 58.4582 0.8827 57.2156 1.54812 56.102C2.21354 54.9885 3.1234 54.1126 4.2777 53.4743C5.44558 52.8361 6.73568 52.5169 8.148 52.5169C9.18008 52.5169 10.1986 52.7342 11.2035 53.1688C12.2084 53.5897 13.064 54.1669 13.7701 54.9002L11.8961 57.202ZM22.0941 52.5169C23.52 52.5169 24.8169 52.8361 25.9848 53.4743C27.1527 54.1126 28.0693 54.9953 28.7348 56.1224C29.4138 57.236 29.7533 58.4785 29.7533 59.8501C29.7533 61.2217 29.4138 62.4711 28.7348 63.5982C28.0693 64.7253 27.1527 65.6148 25.9848 66.2667C24.8169 66.9049 23.52 67.2241 22.0941 67.2241C20.6682 67.2241 19.3713 66.9049 18.2035 66.2667C17.0356 65.6148 16.1121 64.7321 15.4331 63.6186C14.7677 62.4914 14.435 61.2353 14.435 59.8501C14.435 58.4785 14.7677 57.236 15.4331 56.1224C16.1121 54.9953 17.0288 54.1126 18.1831 53.4743C19.351 52.8361 20.6547 52.5169 22.0941 52.5169ZM22.1349 55.328C21.3472 55.328 20.6139 55.5317 19.9349 55.9391C19.2559 56.3329 18.7195 56.8761 18.3257 57.5687C17.9319 58.2613 17.735 59.0217 17.735 59.8501C17.735 60.6921 17.9319 61.4594 18.3257 62.1519C18.7331 62.8445 19.2695 63.3945 19.9349 63.8019C20.6139 64.2093 21.3472 64.413 22.1349 64.413C22.9225 64.413 23.6423 64.2161 24.2941 63.8223C24.9595 63.4149 25.4823 62.8649 25.8626 62.1723C26.2564 61.4661 26.4533 60.6921 26.4533 59.8501C26.4533 59.0217 26.2564 58.2613 25.8626 57.5687C25.4823 56.8761 24.9595 56.3329 24.2941 55.9391C23.6423 55.5317 22.9225 55.328 22.1349 55.328ZM34.8389 61.1131C34.8389 62.1316 35.1241 62.9396 35.6944 63.5371C36.2784 64.121 37.0524 64.413 38.0166 64.413C38.9536 64.413 39.7005 64.121 40.2573 63.5371C40.8141 62.9532 41.0925 62.1451 41.0925 61.1131V52.741H44.311V61.1131C44.311 62.3624 44.0529 63.4488 43.5369 64.3723C43.0344 65.2821 42.3079 65.9883 41.3573 66.4907C40.4067 66.9796 39.2864 67.2241 37.9963 67.2241C36.7062 67.2241 35.579 66.9796 34.6148 66.4907C33.6507 65.9883 32.9105 65.2821 32.3945 64.3723C31.8785 63.4488 31.6204 62.3624 31.6204 61.1131V52.741H34.8389V61.1131ZM57.0611 52.741H60.1166V67H57.1834L50.2779 57.8335V67H47.2021V52.741H50.1353L57.0611 61.9482V52.741ZM73.583 57.202C73.0941 56.6181 72.5169 56.1632 71.8515 55.8372C71.1997 55.4977 70.541 55.328 69.8756 55.328C69.0744 55.328 68.3411 55.5249 67.6757 55.9187C67.0102 56.3125 66.4874 56.8489 66.1072 57.5279C65.7269 58.2069 65.5368 58.9606 65.5368 59.789C65.5368 60.6174 65.7269 61.3779 66.1072 62.0705C66.4874 62.7495 67.0102 63.2927 67.6757 63.7001C68.3411 64.0939 69.0744 64.2908 69.8756 64.2908C70.5139 64.2908 71.1589 64.1414 71.8108 63.8426C72.4762 63.5303 73.0669 63.1161 73.583 62.6001L75.4774 64.6574C74.7169 65.4451 73.8206 66.0698 72.7885 66.5315C71.77 66.9932 70.7447 67.2241 69.7127 67.2241C68.3139 67.2241 67.0442 66.9049 65.9035 66.2667C64.7628 65.6148 63.8665 64.7253 63.2146 63.5982C62.5628 62.4711 62.2369 61.2149 62.2369 59.8298C62.2369 58.4582 62.5696 57.2156 63.235 56.102C63.9004 54.9885 64.8103 54.1126 65.9646 53.4743C67.1325 52.8361 68.4226 52.5169 69.8349 52.5169C70.867 52.5169 71.8855 52.7342 72.8904 53.1688C73.8953 53.5897 74.7508 54.1669 75.457 54.9002L73.583 57.202ZM77.399 52.741H80.6175V67H77.399V52.741ZM83.7845 52.741H87.003V64.1889H93.114V67H83.7845V52.741Z" fill="#050577"/>
</svg>
