<svg width="1196" height="1354" viewBox="0 0 1196 1354" fill="none" xmlns="http://www.w3.org/2000/svg">
<g opacity="0.07">
<path d="M750.188 629.285C790.981 629.285 822.307 635.875 848.847 657.632C860.117 666.971 870.215 677.635 878.924 689.39C885.625 698.348 884.521 708.281 876.697 715.66C869.585 722.366 859.407 722.483 851.153 715.163C846.008 710.429 841.155 705.39 836.618 700.073C818.927 680.149 796.959 669.631 770.194 668.88C725.133 667.564 681.664 675.392 640.755 694.01C613.727 706.312 595.538 727.581 589.189 757.37C585.096 776.612 593.35 793.856 610.679 803.458C614.127 805.407 617.751 806.967 621.228 808.838C631.202 814.18 635.646 824.873 631.768 834.036C627.597 843.911 616.989 848.307 605.941 844.759C564.465 831.336 541.08 788.807 551.356 746.404C562.541 700.297 592.461 670.567 635.011 653.352C674.045 637.463 715.433 630.767 750.188 629.285Z" fill="#456432"/>
<path d="M446.407 298.993C447.14 321.011 444.485 343.01 438.533 364.225C436.717 370.697 434.245 376.819 429.166 381.634C422.748 387.736 415.344 389.686 407.383 385.913C399.109 382.014 395.192 374.869 396.872 365.706C398.279 358.006 400.594 350.471 402.499 342.867C414.035 296.634 407.431 252.798 382.962 212.248C357.428 169.972 344.866 124.002 339.835 75.4676C338.673 64.3552 336.856 53.311 335.098 42.3253C333.154 30.2576 337.178 20.5099 345.911 16.7375C359.684 10.8889 372.5 20.5489 374.376 37.6659C377.218 63.5266 380.657 89.3289 385.6 114.897C390.786 141.752 401.473 166.463 415.285 189.867C435.623 224.286 448.478 260.684 446.407 298.993Z" fill="#BC3C2D"/>
<path d="M934.075 724.433C934.134 693.718 947.878 670.82 965.578 649.697C990.819 619.625 1019.52 592.731 1045.62 563.439C1060.78 546.429 1075.97 529.517 1087.49 509.632C1093.36 499.592 1100.85 496.599 1109.36 499.085C1121.81 502.721 1126.94 514.779 1121.31 527.587C1114.73 542.511 1104.36 554.881 1093.96 567.231C1069.29 596.601 1041.85 623.417 1015.98 651.685C1003.48 665.332 990.584 678.696 981.275 694.965C969.553 715.377 970.227 734.619 985.182 753.12C989.568 758.56 993.769 763.843 993.349 771.719C992.606 785.882 978.266 794.782 965.998 787.715C952.097 779.702 944.937 766.046 939.164 751.902C935.394 742.632 933.596 732.67 934.075 724.433Z" fill="#BC3C2E"/>
<path d="M457.738 266.222C458.441 210.991 471.921 156.423 497.993 104.945C503.082 94.876 510.74 90.4505 519.785 91.9614C534.555 94.447 540.201 107.743 532.367 122.91C524.645 138.043 518.139 153.764 512.909 169.924C499.847 209.522 494.741 251.302 497.885 292.872C499.956 321.374 505.543 349.409 522.237 373.778C524.797 377.531 527.835 380.962 530.618 384.569C539.41 395.896 539.41 405.906 530.618 413.744C521.827 421.581 511.561 420.275 501.587 410.4C488.351 397.299 479.892 381.323 473.191 364.186C461.108 333.471 458.06 301.323 457.738 266.222Z" fill="#E8892A"/>
<path d="M1196 489.376C1195.35 498.607 1190.74 507.292 1187.61 516.416C1179.85 539.105 1170.74 561.308 1160.32 582.906C1140.54 623.758 1110.96 656.325 1075.39 684.038C1060.04 696.008 1045.35 708.798 1033.39 724.482C1028.06 731.51 1021.79 738.518 1011.53 736.793C997.774 734.483 991.493 720.904 998.096 708.037C1003.87 696.808 1012.26 687.46 1021.61 679.174C1037.31 665.254 1053.45 651.881 1069.47 638.234C1103.56 609.302 1125.08 572.027 1140.78 531.009C1146.09 517.157 1150.98 503.15 1156.01 489.191C1157.66 484.6 1159.56 480.096 1162.91 476.519C1168.65 470.329 1175.84 468.506 1183.73 471.216C1191.95 473.936 1195.55 480.301 1196 489.376Z" fill="#456432"/>
<path d="M1039.13 1129.11C1039.56 1104.26 1046.67 1082.48 1050.97 1060.2C1052.57 1051.27 1054.68 1042.43 1057.31 1033.74C1064.36 1011.55 1078.25 994.27 1096.89 980.506C1106.43 973.468 1115.88 966.294 1124.95 958.681C1134.74 950.38 1142.22 939.696 1146.67 927.664C1150.65 917.331 1158.72 911.96 1167.18 912.769C1179.98 913.988 1186.91 924.125 1184.06 937.811C1180.46 955.143 1170.27 968.721 1158.4 981.159C1146.17 993.978 1131.46 1003.9 1117.61 1014.79C1104.64 1024.99 1096.36 1037.54 1092.99 1053.87C1089.03 1073.12 1084.2 1092.2 1080.68 1111.54C1077.53 1128.7 1080.55 1145.4 1082.98 1162.23C1083.55 1165.82 1083.83 1169.46 1083.82 1173.09C1083.65 1183.04 1077.13 1190.43 1067.46 1191.98C1062.89 1192.71 1058.21 1191.74 1054.32 1189.24C1050.43 1186.75 1047.59 1182.92 1046.34 1178.47C1042.06 1162.35 1039.64 1145.78 1039.13 1129.11Z" fill="#BC3D2F"/>
<path d="M628.281 884.968C625.136 902.261 621.551 919.495 618.982 936.865C616.051 957.004 614.674 977.27 618.396 997.525C622.117 1017.78 633.927 1032.17 652.203 1041.2C668.135 1049.08 685.23 1053.04 702.842 1055.01C706.465 1055.34 710.057 1055.96 713.587 1056.84C724.488 1059.76 730.056 1068 728.542 1078.51C727.145 1088.17 719.106 1095.51 708.576 1094.72C675.784 1092.26 644.184 1085.3 617.009 1065.41C592.061 1047.14 580.798 1021.54 577.994 991.326C574.517 953.914 581.159 917.662 589.433 881.518C591.386 873.125 596.105 866.896 604.486 864.8C612.007 862.851 618.855 864.8 624.13 871.234C627.519 875.386 628.144 879.968 628.281 884.968Z" fill="#456432"/>
<path d="M182.987 298.214C182.987 300.164 183.095 303.546 182.987 306.89C182.606 317.437 175.026 325.771 165.15 326.619C155.636 327.438 146.141 319.913 144.715 309.512C139.059 268.201 153.917 229.961 190.157 209.987C227.862 189.147 269.494 194.995 301.28 224.551C319.918 241.882 330.858 263.707 338.839 287.199C343.098 299.715 337.52 311.091 326.619 314.863C316.626 318.333 307.083 312.914 301.886 300.437C297.002 288.661 292.704 276.652 285.514 265.939C271.136 244.494 248.024 234.103 226.505 237.671C203.295 241.56 179.725 263.746 182.987 298.214Z" fill="#E8892A"/>
<path d="M807.948 288.086C863.91 287.998 898.792 315.185 916.238 369.519C918.679 377.339 920.543 385.328 921.816 393.42C923.985 406.687 917.284 417.087 905.913 419.115C896.448 420.801 887.07 413.578 884.072 401.413C880.526 386.967 877.185 372.492 869.556 359.498C854.327 333.549 829.907 322.69 800.016 327.399C774.101 331.493 751.527 342.644 730.554 357.704C724.576 362.003 718.461 366.575 710.832 366.156C702.891 365.707 696.18 362.403 693.25 353.971C690.446 345.871 692.077 338.794 698.261 333.228C711.741 321.131 727.116 311.968 743.478 304.326C765.222 294.227 787.864 287.774 807.948 288.086Z" fill="#E8892A"/>
<path d="M590.234 258.667C592.929 205.858 605.738 154.054 627.969 106.056C631.876 97.6145 637.532 91.0641 647.788 90.9861C655.417 90.9276 661.151 94.3783 664.873 101.163C668.243 107.294 667.803 113.269 664.951 119.479C651.637 148.81 640.726 178.94 635.461 210.854C631.26 236.305 627.978 261.815 632.237 287.724C634.464 301.284 641.273 310.144 654.245 315.242C667.217 320.34 672.746 330.595 669.073 340.528C665.039 351.445 654.714 356.066 642.152 352.449C611.871 343.676 597.746 321.578 592.383 292.316C590.351 281.203 590.117 269.954 590.234 258.667Z" fill="#BC3D2F"/>
<path d="M567.376 893.985C567.532 917.756 562.383 941.264 552.304 962.804C539.937 989.62 544.997 1012.78 562.346 1034.94C566.006 1039.41 569.203 1044.23 571.889 1049.34C577.105 1059.85 574.175 1069.91 564.954 1075.59C556.797 1080.6 546.697 1078.64 539.752 1070.03C528.45 1056.03 518.477 1041.12 511.717 1024.35C503.629 1004.31 503.951 984.034 510.828 963.701C516.855 945.911 524.836 928.706 527.121 909.796C529.876 887.054 526.145 865.034 519.678 843.297C518.493 839.551 517.724 835.688 517.382 831.775C516.494 819.035 520.977 812.465 531.742 809.989C541.51 807.747 551.356 813.449 554.971 824.435C562.394 846.991 567.093 870.113 567.376 893.985Z" fill="#E8892B"/>
<path d="M751.41 453.309C751.41 463.31 745.988 471.021 737.89 472.961C728.23 475.271 719.409 471.489 715.081 462.374C710.403 452.52 706.525 442.304 699.687 433.58C683.159 412.486 661.513 402.504 634.943 406.198C607.651 409.99 589.257 425.85 579.45 451.623C577.688 456.463 575.474 461.126 572.837 465.552C567.708 473.828 557.93 476.46 548.885 472.561C544.956 470.794 541.76 467.726 539.839 463.876C537.918 460.026 537.39 455.631 538.345 451.438C547.967 412.203 571.557 384.939 610.024 371.955C669.747 351.806 726.559 384.812 748.948 441.466C750.472 445.355 752.142 449.41 751.41 453.309Z" fill="#456431"/>
<path d="M534.145 1114.61C533.891 1101.29 540.982 1091.86 551.679 1090.91C562.013 1089.99 571.371 1096.94 572.485 1109.34C576.597 1155.16 597.306 1194.99 616.921 1235.27C627.609 1257.38 634.718 1281.04 637.981 1305.37C639.075 1313.23 641.292 1320.76 643.256 1328.38C646.245 1340 641.917 1348.85 631.622 1352.75C622.41 1356.25 612.691 1352.11 607.201 1342.26C601.878 1332.76 600.725 1322.14 599.221 1311.65C594.639 1279.69 581.882 1250.7 567.044 1222.43C550.146 1190.5 539.022 1155.85 534.184 1120.07C534.053 1118.25 534.04 1116.43 534.145 1114.61Z" fill="#456431"/>
<path d="M213.142 436.085C175.72 436.251 146.552 424.388 125.228 396.49C116.436 384.968 110.575 371.877 113.506 356.7C115.362 347.147 122.004 341.688 131.196 341.269C139.655 340.889 148.037 345.587 149.863 354.321C156.076 384.003 177.908 394.521 204.145 396.909C226.944 398.995 247.858 390.924 265.577 375.844C277.065 366.097 286.022 354.312 293.593 341.318C300.118 330.098 307.483 326.404 317.212 328.441C328.866 330.878 334.961 340.977 331.376 352.352C325.896 369.694 313.881 382.678 302.003 395.73C279.165 420.84 243.521 436.514 213.142 436.085Z" fill="#BC3D2F"/>
<path d="M515.595 294.421C516.767 250.693 527.512 211.566 540.455 173.014C544.216 161.804 548.358 150.72 552.538 139.667C555.469 131.985 559.894 125.454 568.685 123.836C583.015 121.204 594.473 133.584 590.449 148.079C586.981 160.585 582.234 172.741 577.848 184.984C567.845 212.646 560.63 241.235 556.309 270.325C554.677 282.093 554.572 294.022 555.996 305.817C557.618 320.058 563.811 331.492 578.17 337.896C589.511 342.965 593.106 353.424 588.915 363.523C584.783 373.378 574.487 377.696 562.834 373.378C535.913 363.387 522.364 342.478 517.666 315.272C516.337 307.561 514.364 299.734 515.595 294.421Z" fill="#456432"/>
<path d="M766.286 523.279C763.981 581.219 730.339 622.326 678.91 630.358C647.524 635.231 607.465 610.862 598.224 580.323C596.056 573.148 592.91 566.071 593.887 558.234C595.118 548.486 599.895 543.203 610.122 541.302C618.22 539.811 624.305 543.632 628.535 550.192C630.368 553.321 631.762 556.686 632.677 560.193C641.537 589.69 672.961 600.647 698.036 582.409C721.48 565.37 729.294 541.546 725.709 513.512C723.677 497.603 733.651 486.725 748.108 489.854C756.704 491.725 761.52 497.983 763.864 505.977C765.661 512.079 766.736 518.415 766.286 523.279Z" fill="#E8892A"/>
<path d="M738.935 683.152C771.229 683.249 796.959 687.723 820.246 702.052C824.103 704.491 827.581 707.48 830.571 710.923C837.956 719.091 838.942 728.8 833.091 736.54C827.475 743.977 815.987 746.034 806.805 740.283C799.059 735.409 791.713 729.95 782.717 727.689C741.153 717.23 702.012 720.271 667.627 748.793C657.996 756.786 651.998 767.119 648.189 779.011C643.578 793.272 634.22 798.964 622.352 795.426C612.232 792.414 606.986 780.219 610.835 767.265C621.414 731.686 646.196 709.207 679.564 695.619C700.195 687.187 721.792 682.148 738.935 683.152Z" fill="#BC3D2F"/>
<path d="M471.921 461.761C488.527 464.49 506.638 473.458 523.693 484.561C559.405 507.839 578.043 543.369 592.52 581.648C598.937 598.619 604.876 615.814 607.328 633.916C608.696 644.063 603.421 653.684 594.952 657.135C586.483 660.585 579.411 658.304 573.667 651.744C570.424 648.04 569.262 643.332 568.304 638.468C562.374 607.435 550.814 577.743 534.194 550.855C517.529 523.981 492.962 507.761 462.622 499.709C450.255 496.434 445.039 488.83 446.485 477.104C447.696 467.766 456.116 461.712 471.921 461.761Z" fill="#456431"/>
<path d="M1057.42 504.738C1058.06 510.197 1054.89 515.042 1051.4 519.711C1035.84 540.512 1016.88 558.185 998.78 576.647C977.045 598.804 954.764 620.444 937.103 646.227C930.529 655.838 925.938 666.414 920.81 676.747C915.33 687.781 905.396 692.548 895.598 689.087C885.801 685.627 881.463 675.928 885.087 663.353C890.499 644.628 901.527 628.895 913.064 613.523C935.628 583.441 963.634 558.409 989.578 531.457C1001.6 518.96 1013.38 506.249 1024.36 492.788C1030.28 485.545 1038.3 484.424 1046.75 487.592C1054.11 490.351 1057.57 496.063 1057.42 504.738Z" fill="#E8892A"/>
<path d="M622.596 502.77C623.69 519.263 619.988 526.535 608.813 529.8C599.045 532.656 590.459 528.582 586.512 519.224C571.86 484.454 594.219 439.634 630.684 430.734C655.3 424.72 682.055 437.401 694.451 462.219C710.148 493.646 703.819 523.63 685.708 551.85C679.779 561.081 668.868 562.572 659.901 557.182C651.383 552.083 648.257 542.56 652.633 532.588C656.902 522.84 662.167 513.58 663.241 502.77C664.14 493.743 662.694 485.126 657.556 477.572C650.162 466.693 637.717 466.196 629.023 476.119C622.215 483.879 621.717 493.158 622.596 502.77Z" fill="#BC3C2E"/>
<path d="M159.446 94.7005C187.666 94.3983 208.629 107.265 222.294 131.264C228.038 141.363 234.817 145.73 246.715 146.568C266.544 147.962 286.843 147.991 305.637 156.404C314.36 160.303 322.419 165.069 328.612 172.448C336.583 181.952 336.866 194.157 329.51 201.419C321.696 209.168 310.902 208.934 301.104 199.771C293.036 192.217 283.229 189.341 272.992 187.928C259.795 186.095 246.432 185.52 233.166 184.194C215.701 182.45 201.4 175.1 193.527 158.928C184.355 139.979 170.699 131.04 149.013 133.828C135.943 135.514 126.722 127.141 126.185 115.814C125.726 105.384 134.508 96.5428 146.64 95.3829C150.918 94.9735 155.187 94.915 159.446 94.7005Z" fill="#BC3D2F"/>
<path d="M1012.71 924.349C1012.53 971.333 989.93 1004.28 948.835 1025.65C942.359 1029.01 935.98 1032.64 929.25 1035.4C918.837 1039.67 908.307 1036.42 903.667 1028.14C898.48 1018.9 901.293 1007.62 911.315 1001.24C921.083 995.049 931.545 990.097 941.333 983.995C967.707 967.561 975.375 942.694 972.64 913.285C971.312 898.985 966.3 885.543 963.204 871.653C960.742 860.638 964.445 852.927 973.549 849.233C983.786 845.071 992.958 847.878 998.321 858.25C1005.91 872.93 1009.36 888.984 1011.31 905.302C1012.1 911.609 1012.26 917.994 1012.71 924.349Z" fill="#BC3C2E"/>
<path d="M559.249 674.183C558.741 684.584 558.643 696.457 555.625 708.037C552.607 719.617 543.171 726.801 533.217 725.271C522.95 723.672 516.806 715.864 517.744 703.202C519.141 684.106 520.909 665.059 517.568 646.032C511.824 613.24 499.175 584.485 470.114 565.204C464.693 561.607 458.539 558.458 456.712 551.011C454.758 543.213 456.243 536.448 462.006 530.979C467.77 525.511 474.783 524.156 482.276 527.324C498.12 534.011 510.603 545.035 521.231 558.234C548.162 591.659 558.507 630.611 559.249 674.183Z" fill="#E7892B"/>
<path d="M408.965 424.758C409.844 443.718 402.03 459.109 388.315 469.988C372.373 482.66 372.266 496.248 378.762 513.355C385.536 531.203 390.988 549.523 395.075 568.167C397.829 580.683 392.047 592.039 381.712 594.593C371.113 597.215 361.032 591.23 357.399 579.182C349.962 554.572 342.798 529.878 335.909 505.099C330.526 485.331 335.166 467.931 349.819 453.309C352.837 450.297 355.679 447.081 358.835 444.244C367.128 436.816 370.986 428.345 368.74 416.716C366.669 405.994 372.764 397.221 381.936 394.608C391.636 391.86 401.033 396.617 405.761 406.608C408.321 412.299 409.422 418.537 408.965 424.758Z" fill="#BC3C2E"/>
<path d="M658.865 237.398C658.318 201.263 668.809 167.497 681.117 134.072C683.423 127.814 685.201 121.4 687.437 115.083C690.837 105.56 698.788 100.822 708.781 102.128C717.875 103.327 724.166 110.277 724.469 120.503C724.772 130.358 721.822 139.657 718.08 148.684C705.684 178.648 697.352 209.402 698.417 242.262C698.847 255.489 701.758 268.054 705.479 280.561C706.778 284.928 708.244 289.207 708.146 293.876C707.921 304.17 703.575 310.018 694.158 312.553C685.161 314.96 677.298 312.065 672.668 303.409C663.75 286.526 660.272 268.093 658.856 249.241C658.611 245.313 658.865 241.345 658.865 237.398Z" fill="#E8892A"/>
<path d="M459.31 708.427C458.636 702.217 460.16 695.297 461.43 688.502C464.83 670.313 461.792 652.913 456.38 635.66C455.481 632.736 454.553 629.879 453.928 626.887C451.808 616.827 456.751 607.742 466.138 604.184C470.6 602.449 475.557 602.478 479.997 604.266C484.437 606.054 488.027 609.466 490.032 613.806C499.26 633.997 503.414 656.131 502.134 678.287C501.695 685.812 500.493 693.308 499.302 700.765C496.723 716.751 503.463 729.628 512.381 741.978C519.668 752.067 526.819 762.254 533.637 772.664C538.521 780.063 539.087 788.183 534.057 795.727C529.593 802.424 522.696 804.247 514.823 803.526C509.412 803.048 505.758 799.997 502.847 796.049C490.959 779.926 478.593 764.145 468.747 746.579C462.075 734.998 458.805 721.776 459.31 708.427Z" fill="#BC3D2F"/>
<path d="M901.137 850.159C900.707 879.217 895.657 907.388 885.029 934.516C880.194 946.837 871.07 954.684 862.308 954.011C848.388 952.91 840.964 940.218 846.142 925.831C851.319 911.443 856.047 897.309 858.772 882.317C864.848 848.794 861.126 816.568 847.46 785.424C845.634 781.262 843.358 777.275 841.756 773.035C838.112 763.356 841.56 752.77 849.473 748.451C858.664 743.431 869.605 746.219 875.847 755.509C882.684 765.676 886.943 777.071 890.714 788.651C894.448 800.444 897.324 812.491 899.32 824.698C900.816 833.098 901.425 841.632 901.137 850.159Z" fill="#E7892B"/>
<path d="M237.572 550.573C229.884 549.754 224.932 542.238 221.269 533.602C216.658 522.723 212.673 511.572 205.982 501.688C205.387 500.639 204.735 499.624 204.028 498.647C185.683 477.202 169.155 475.476 152.803 499.514C149.043 505.031 146.102 511.114 142.244 516.543C135.406 526.155 123.762 528.913 114.981 523.464C105.994 517.898 104.089 508.628 109.12 497.243C116.368 480.877 125.726 466.05 140.466 455.435C168.345 435.433 201.449 439.234 226.827 465.3C243.531 482.456 253.367 503.608 259.785 526.281C263.526 539.607 253.807 551.236 237.572 550.573Z" fill="#456432"/>
<path d="M916.004 531.067C890.343 530.092 867.27 519.107 851.866 494.143C845.028 483.099 846.337 469.481 855.119 464.052C864.936 457.989 878.777 461.449 885.234 473.351C893.967 489.405 911.491 495.186 931.145 490.526C953.797 485.155 969.758 470.778 983.033 452.676C985.182 449.752 987.038 446.554 989.392 443.796C996.162 435.89 1005.37 434.107 1013.9 438.786C1021.35 442.87 1025.14 452.627 1021.63 461.81C1015.85 476.86 1005.02 488.518 993.564 499.416C973.031 518.931 943.912 531.106 916.004 531.067Z" fill="#456432"/>
<path d="M740.078 984.171C729.333 983.313 718.256 983.196 708.068 978.322C697.88 973.448 692.771 963.145 696.063 953.787C699.589 943.776 709.338 937.937 720.337 941.622C764.46 956.37 801.335 924.076 803.738 874.567C803.865 872.14 803.601 869.693 803.865 867.276C804.368 862.705 806.484 858.462 809.834 855.305C813.184 852.148 817.549 850.283 822.151 850.042C831.421 849.535 839.548 855.267 841.502 864.663C845.565 884.159 840.837 902.787 833.531 920.508C820.91 951.087 799.235 972.532 766.452 981.188C757.915 983.439 749.046 983.888 740.078 984.171Z" fill="#BC3C2D"/>
<path d="M789.115 864.342C787.874 890.563 776.358 912.847 755.278 930.139C746.008 937.742 734.765 936.846 727.448 928.745C720.415 920.947 720.767 910.224 729.187 901.812C738.379 892.601 746.154 882.648 748.811 869.645C750.267 862.568 752.298 853.376 743.742 850.607C735.39 847.907 731.424 856.329 728.112 862.821C725.905 867.12 724.742 871.994 722.251 876.137C717.983 883.389 710.998 886.615 702.861 885.173C694.471 883.691 687.447 878.632 687.31 869.654C686.969 847.566 697.518 830.781 715.638 818.654C731.736 807.864 748.616 806.957 765.398 816.705C783.078 827.018 788.48 843.979 789.115 864.342Z" fill="#456432"/>
<path d="M804.646 223.643C839.919 222.834 872.193 230.574 898.04 256.444C903.139 261.552 906.49 267.576 906.148 275.082C905.757 283.524 901.586 289.402 893.664 292.384C886.064 295.25 879.481 293.739 873.893 287.579C853.038 264.603 825.892 261.094 797.095 263.463C779.903 264.876 764.196 270.93 749.368 279.761C738.896 286 728.181 283.475 722.134 274.39C716.273 265.539 718.373 254.417 728.356 247.233C747.815 233.245 770.194 226.977 793.706 224.228C797.33 223.809 801.003 223.829 804.646 223.643Z" fill="#BC3C2E"/>
<path d="M719.858 1148.81C720.004 1137.26 721.069 1125.75 723.043 1114.37C725.201 1102.6 735.175 1094.46 745.314 1096.09C756.225 1097.86 763.014 1107.46 761.334 1119.66C756.45 1155.42 759.791 1189.79 777.285 1222.09C782.961 1232.59 790.414 1241.77 797.515 1251.25C805.33 1261.69 805.008 1271.45 796.783 1278.91C788.558 1286.37 778.389 1285.85 769.08 1277.24C752.631 1262.03 742.1 1242.81 733.758 1222.48C724.118 1199.13 719.387 1174.06 719.858 1148.81Z" fill="#BC3D2F"/>
<path d="M396.462 301.791C395.485 332.984 388.423 360.755 370.586 385.153C365.213 392.503 357.887 394.765 348.92 392.952C340.334 391.256 336.837 385.153 335.244 377.774C333.848 371.165 337.276 365.395 340.549 359.946C352.798 339.602 358.786 317.884 356.432 293.973C354.683 276.31 349.232 260.344 337.55 246.706C332.519 240.858 328.104 234.463 329.979 226.168C333.291 211.546 349.359 206.234 361.54 216.147C374.62 226.802 382.112 241.433 388.11 256.834C393.548 271.206 396.376 286.429 396.462 301.791Z" fill="#456432"/>
<path d="M777.481 1148.26C778.047 1137.21 780.46 1123.54 784.319 1110.08C789.515 1091.76 794.204 1073.25 801.208 1055.49C805.34 1045.04 814.707 1041.03 825.013 1043.93C833.589 1046.34 839.177 1055.17 838.063 1065.46C837.575 1069.93 836.11 1074.33 834.928 1078.7C829.682 1097.63 822.415 1115.98 818.888 1135.42C815.606 1153.51 817.56 1170.36 828.315 1185.82C831.616 1190.55 834.402 1195.61 836.627 1200.92C840.476 1210.3 837.604 1219.33 830.044 1224.19C820.686 1230.17 812.734 1229.12 804.754 1220.82C788.861 1204.33 777.373 1174.97 777.481 1148.26Z" fill="#456432"/>
<path d="M755.59 742.943C789.261 744.22 817.667 759.056 835.172 792.033C839.577 800.378 841.817 809.691 841.687 819.122C841.687 828.324 837.262 833.841 828.842 836.726C820.422 839.612 814.024 836.522 808.651 830.283C806.345 827.447 804.661 824.159 803.708 820.633C794.917 791.887 773.134 778.406 742.794 782.86C732.772 784.332 723.257 787.081 714.613 792.715C712.087 794.403 709.356 795.763 706.485 796.761C696.971 799.968 687.31 796.488 682.671 788.456C677.845 780.121 680.18 770.481 688.717 763.414C702.725 751.814 730.711 742.865 755.59 742.943Z" fill="#E8892B"/>
<path d="M214.167 373.914C204.321 373.212 191.603 373.914 181.219 365.044C174.606 359.38 173.522 352.138 175.29 344.32C177.058 336.502 183.192 333.266 190.362 331.492C194.426 330.517 198.177 332.009 201.986 332.925C213.063 335.586 223.623 335.362 233.577 328.821C235.616 327.496 237.372 325.78 238.74 323.772C240.109 321.764 241.063 319.504 241.548 317.124C242.427 313.4 242.358 309.599 239.399 306.977C236.439 304.354 233.85 307.571 231.232 308.741C222.334 312.728 212.673 310.69 207.339 303.633C201.303 295.65 201.654 285.298 208.267 276.7C216.893 265.48 231.711 261.279 246.901 265.773C279.829 275.521 292.645 317.962 270.96 346.426C257.411 364.186 239.066 373.154 214.167 373.914Z" fill="#456432"/>
<path d="M794.409 351.836C848.134 352.021 874.626 397.972 868.511 441.408C866.928 452.657 857.512 459.987 847.705 458.954C837.165 457.842 830.405 449.84 830.337 438.142C830.337 430.266 830.659 422.39 827.738 414.836C817.97 389.735 795.992 386.343 775.351 394.814C770.897 396.646 766.941 399.688 762.653 402.027C752.074 407.876 741.27 405.868 735.028 396.987C729.167 388.702 731.658 377.365 740.889 369.694C754.018 358.815 774.843 351.865 794.409 351.836Z" fill="#BC3C2E"/>
<path d="M753.353 1041.67C727.819 1039.87 703.184 1037.12 679.681 1027.64C646.538 1014.27 630.098 987.154 634.582 951.994C635.881 941.759 643.471 934.916 653.649 934.799C663.652 934.691 671.427 941.505 672.892 951.73C673.158 953.236 673.243 954.767 673.146 956.292C671.193 974.667 677.464 985.292 699.521 993.246C718.393 1000.07 738.125 1001.13 757.876 1002.09C768.533 1002.6 776.973 1008.17 779.112 1016.22C782.316 1028.29 775.127 1038.84 761.852 1041.22C759.033 1041.57 756.193 1041.72 753.353 1041.67Z" fill="#E8892B"/>
<path d="M5.34241 320.341C5.72337 285.083 20.3171 254.709 38.2125 225.495C41.6023 219.744 45.4228 214.257 49.6413 209.08C57.4558 199.888 67.605 198.358 76.3183 204.294C84.7189 210.055 86.9168 220.865 81.0754 230.993C72.8994 245.166 63.3558 258.511 56.4204 273.445C46.5545 294.646 41.7681 316.335 47.2969 339.641C48.4253 343.773 48.5891 348.108 47.7755 352.313C45.8219 360.901 40.6936 366.643 31.8729 367.569C23.5406 368.446 16.2437 365.931 12.3365 357.509C6.79787 345.704 5.0689 333.227 5.34241 320.341Z" fill="#BC3D2F"/>
<path d="M888.047 1034.96C887.432 1053.36 893.781 1072.06 895.256 1091.42C897.366 1119.16 888.741 1142.83 869.38 1162.45C861.79 1170.14 851.231 1170.16 843.699 1164.03C836.315 1158 833.404 1146.14 840.046 1138.6C859.358 1116.67 858.078 1092.24 851.641 1066.47C848.085 1052.23 847.9 1037.61 848.623 1023.04C849.277 1010.08 858.489 1000.47 869.37 1000.68C879.607 1000.88 887.793 1010.96 888.037 1023.72C888.145 1027.09 888.047 1030.43 888.047 1034.96Z" fill="#E8892A"/>
<path d="M392.144 36.799C391.978 34.674 391.636 32.5587 391.656 30.4337C391.793 18.9509 400.056 9.43711 410.03 9.18367C420.286 8.92048 428.521 17.44 430.143 28.9618C434.343 58.9361 436.98 89.1345 444.551 118.641C447.129 128.74 451.154 138.078 455.393 147.465C460.883 159.65 458.412 169.709 448.819 175.226C439.491 180.597 429.019 177.264 421.634 166.19C410.753 149.882 406.533 131.021 402.909 112.305C398.074 87.3312 393.678 62.2406 392.144 36.799Z" fill="#476632"/>
<path d="M178.552 599.428C178.777 608.425 174.44 614.391 166.684 617.364C157.981 620.717 150.479 617.646 144.676 610.794C139.987 605.257 136.207 599.018 130.952 593.833C120.305 583.334 106.668 577.895 93.8327 571.12C78.9557 563.322 64.528 554.852 53.9979 541.341C44.005 528.513 46.1833 514.252 58.882 508.199C65.1141 505.197 72.3816 504.436 76.8262 509.583C94.1452 529.595 118.712 538.261 140.32 551.498C154.062 560.02 165.677 571.554 174.284 585.225C177.146 589.67 179.07 594.33 178.552 599.428Z" fill="#BC3D2F"/>
<path d="M260.039 608.054C247.819 607.957 235.804 605.998 223.896 603.522C206.91 599.993 194.055 590.148 184.599 575.926C176.677 564.024 168.813 552.151 159.26 541.399C151.367 532.509 151.514 521.475 158.635 514.232C166.293 506.434 175.895 506.035 185.752 513.765C195.608 521.494 204.311 531.008 209.479 542.355C218.69 562.542 235.179 568.42 255.389 568.976C259.958 569.117 264.507 569.645 268.987 570.555C280.083 572.807 287.702 581.433 286.892 590.411C285.866 601.728 278.403 607.898 265.548 608.045C263.692 608.064 261.905 608.045 260.039 608.054Z" fill="#E8892A"/>
<path d="M819.816 595.012C817.56 568.917 846.864 541.984 875.417 540.503C884.58 540.035 893.586 540.688 902.114 544.451C914.568 549.938 919.882 559.793 916.17 570.399C912.663 580.449 902.494 584.806 889.649 581.55C881.835 579.601 874.147 578.451 866.997 583.5C862.972 586.356 858.801 589.846 858.84 594.876C858.84 600.373 864.574 601.104 868.687 602.888C877.615 606.787 881.6 614.488 879.842 624.255C878.386 632.356 871.451 638.292 862.582 639.023C839.402 640.953 819.992 620.97 819.816 595.012Z" fill="#476532"/>
<path d="M637.336 871.077C638.792 851.582 641.243 832.379 649.292 814.394C653.395 805.251 661.014 800.835 669.464 801.829C677.913 802.824 684.458 809.52 686.402 818.625C687.379 823.411 685.581 827.632 684.302 831.93C680.219 845.577 677.015 859.37 676.966 873.7C676.966 885.124 679.203 894.784 691.501 900.233C700.458 904.19 702.754 915.829 698.241 924.748C693.728 933.668 682.612 937.42 671.359 933.521C651.08 926.561 642.425 910.634 638.958 890.982C637.854 884.461 637.854 877.725 637.336 871.077Z" fill="#BB3D2F"/>
<path d="M795.62 168.247C795.62 138.692 811.494 119.655 838.757 117.364C855.744 115.931 869.488 123.486 879.07 137.483C884.746 145.769 883.026 155.897 876.042 162.321C869.058 168.744 860.696 169.319 851.905 163.627C851.668 163.436 851.421 163.26 851.162 163.1C846.903 160.956 843.543 153.899 838.044 158.324C833.081 162.321 834.41 169.105 836.149 174.554C837.682 179.428 840.73 183.717 843.104 188.279C848.339 198.329 846.093 209.305 837.633 214.997C828.842 220.953 818.253 219.267 811.054 209.88C801.52 197.422 794.048 183.99 795.62 168.247Z" fill="#476532"/>
<path d="M392.291 501.687C390.718 483.449 397.321 473.663 408.33 472.074C418.528 470.592 426.89 478.088 430.172 490.819C435.828 512.78 437.693 535.541 444.404 557.279C446.309 563.429 448.605 568.976 452.844 574.103C460.766 583.588 460.473 593.511 452.844 601.075C445.752 608.142 434.548 608.464 425.337 601.738C416.545 595.353 411.769 586.142 408.672 576.248C400.613 550.212 396.843 523.21 392.291 501.687Z" fill="#476632"/>
<path d="M130.6 429.096C130.522 436.075 127.67 442.187 123.968 447.743C102.956 478.858 72.9091 496.55 36.923 504.797C25.9923 507.292 15.3743 500.644 13.108 491.374C10.2948 479.852 15.4915 471.079 27.8874 467.063C36.835 464.139 45.9586 461.77 54.4276 457.569C71.7857 448.962 85.4124 436.514 95.0829 419.553C100.221 410.536 108.944 407.641 117.55 410.507C126.156 413.373 130.766 419.767 130.6 429.096Z" fill="#E7892B"/>
<path d="M955.262 890.008C953.866 924.525 941.235 954.06 918.339 979.229C909.264 989.221 898.743 990.429 890.011 983.499C881.092 976.373 879.91 965.046 888.418 954.255C899.671 940.043 909.342 925.275 913.152 907.232C915.064 898.04 916.011 888.674 915.975 879.286C915.975 865.853 922.451 857.675 933.43 856.632C943.13 855.706 951.599 863.397 954.002 875.835C954.921 880.602 954.891 885.514 955.262 890.008Z" fill="#E7892B"/>
<path d="M890.577 755.723C890.167 742.388 896.223 734.405 906.372 732.953C916.522 731.5 925.547 737.885 928.771 748.89C930.891 756.133 932.678 763.463 934.583 770.774C939.36 789.684 950.886 802.171 969.573 808.215C976.157 810.35 981.637 814.327 983.424 821.501C985.124 828.324 984.284 835.148 978.794 840.022C973.304 844.895 966.593 847.703 958.652 845.412C930.451 837.292 910.729 820.204 900.599 792.326C896.038 779.761 892.013 767.187 890.577 755.723Z" fill="#476632"/>
<path d="M100.983 367.139C100.25 391.353 86.487 409.532 66.6672 423.852C52.5619 434.048 37.5775 442.889 19.4868 443.561C9.24966 444 2.07002 438.142 0.409427 429.096C-0.5411 424.579 0.176107 419.872 2.4289 415.842C4.68168 411.812 8.31826 408.729 12.6685 407.163C25.1328 402.29 37.7435 397.806 47.9025 388.643C55.5315 381.732 61.1287 374.021 61.9297 363.084C62.9065 349.009 71.6295 341.142 83.3514 342.136C94.6727 343.072 101.188 351.777 100.983 367.139Z" fill="#476632"/>
<path d="M675.1 1306.57C677.816 1306.92 682.036 1307.48 686.265 1308C707.179 1310.53 726.95 1308 744.445 1295.08C747.341 1292.86 750.496 1290.98 753.842 1289.51C762.223 1286.01 771.356 1288.07 776.25 1294.44C781.886 1301.77 781.945 1309.44 777.119 1317.29C773.134 1323.78 766.921 1327.8 760.767 1331.58C731.951 1349.13 700.869 1352.05 668.516 1344.67C659.725 1342.65 653.053 1337.25 651.324 1327.77C649.966 1320.3 652.497 1314.12 658.641 1309.34C663.281 1305.7 668.468 1306.86 675.1 1306.57Z" fill="#E7892B"/>
<path d="M183.7 39.1867C215.574 42.2572 258.583 65.4373 271.331 103.98C275.014 115.141 270.842 125.707 261.035 130.045C251.892 134.091 241.401 131.147 236.839 120.229C226.329 95.1094 205.952 84.036 181.512 77.5635C177.996 76.5887 174.469 75.6139 171.568 73.1672C164.652 67.4161 161.302 60.5537 164.574 51.498C167.592 43.1735 174.147 38.9137 183.7 39.1867Z" fill="#476532"/>
<path d="M84.2598 287.939C84.8068 265.422 87.9521 244.893 95.9816 225.271C98.1674 219.589 101.439 214.385 105.613 209.948C111.796 203.631 119.347 202.003 127.269 206.049C135.006 210.035 138.669 216.713 137.36 225.603C137.185 227.718 136.66 229.79 135.807 231.734C123.391 254.953 123.274 280.083 124.202 305.378C124.251 306.899 124.417 308.41 124.456 309.93C124.817 324.045 117.687 333.023 105.965 333.227C94.2429 333.432 86.0376 324.454 86.0962 310.895C86.1743 302.697 83.2829 294.733 84.2598 287.939Z" fill="#E8892B"/>
<path d="M695.037 1204.45C662.255 1205.93 635.451 1190.8 609.419 1173.66C604.255 1170.44 599.58 1166.5 595.538 1161.96C588.143 1153.19 587.401 1143.11 593.936 1135.64C600.774 1127.84 611.783 1126.52 621.121 1133.18C630.997 1140.24 640.56 1147.63 651.334 1153.4C661.61 1158.91 672.58 1162.33 683.628 1165.61C708.156 1172.91 711.858 1185.49 694.939 1204.61L695.037 1204.45Z" fill="#476532"/>
<path d="M976.879 407.495C975.502 432.976 963.38 450.551 941.479 461.527C933.889 465.406 925.78 468.176 917.401 469.754C905.777 471.859 895.11 465.718 892.814 456C890.226 445.073 895.403 436.407 907.213 432.128C912.097 430.363 917.108 429.096 921.865 427.156C934.397 422.058 938.822 413.773 936.625 400.428C935.894 396.869 935.446 393.257 935.286 389.628C935.286 378.847 940.766 372.218 950.916 370.386C959.99 368.748 968.127 373.31 971.966 382.57C975.395 390.768 975.717 399.6 976.879 407.495Z" fill="#BB3D2F"/>
<path d="M327.645 121.935C327.84 134.159 320.953 143.38 309.544 143.877C298.545 144.403 290.154 138.165 289.461 125.99C287.966 99.5639 279.243 75.7209 267.131 52.6091C261.641 42.1303 264.982 31.1641 273.695 26.1635C282.906 20.8315 293.837 23.3659 299.854 33.2306C316.079 59.8126 326.482 88.3735 327.645 121.935Z" fill="#E8892B"/>
<path d="M678.753 1142.3C651.107 1138.24 624.985 1127.1 602.933 1109.97C593.457 1102.62 592.393 1092.43 598.468 1083.37C603.773 1075.49 614.674 1072.96 624.511 1078.59C639.29 1087.06 653.815 1095.85 670.597 1100.03C676.184 1101.43 681.791 1102.8 687.437 1103.93C701.816 1106.8 707.755 1113.36 706.73 1125.51C705.811 1136.35 697.391 1142.55 678.753 1142.3Z" fill="#BB3D2F"/>
<path d="M491.213 91.3861C491.213 109.683 484.21 117.627 470.856 117.101C462.124 116.75 454.866 111.252 453.596 102.479C449.689 75.5266 446.055 48.5351 442.851 21.4949C441.562 10.5872 448.712 1.59004 458.314 0.215605C463.365 -0.534104 468.511 0.687638 472.683 3.62683C476.854 6.56602 479.73 10.9965 480.713 15.9972C485.751 40.8895 489.257 66.0662 491.213 91.3861Z" fill="#BB3D2F"/>
<path d="M258.3 472.054C258.456 457.433 262.676 445.921 271.458 436.319C284.723 421.815 301.28 412.476 319.957 406.891C328.748 404.269 335.44 408.041 339.992 415.615C344.544 423.189 344.104 430.588 338.233 437.499C335.41 440.813 331.865 443.045 328.094 445.102C320.348 449.313 312.377 453.076 305.295 458.466C299.336 462.999 297.158 468.477 298.35 475.924C300.509 489.454 294.071 498.734 281.9 500.508C271.761 501.999 261.797 493.919 259.531 482.163C258.789 478.293 258.564 474.335 258.3 472.054Z" fill="#E7892B"/>
<path d="M735.243 181.913C735.39 163.393 736.767 148.527 741.407 134.257C744.464 124.84 749.006 116.321 759.458 112.812C766.238 110.54 772.157 111.944 777.168 116.711C782.179 121.477 786.448 128.028 783.332 134.617C772.646 157.222 776.123 180.997 775.937 204.518C775.82 218.019 767.869 225.145 754.447 224.014C745.441 223.263 739.189 217.034 737.636 206.468C736.239 197.149 734.96 187.781 735.243 181.913Z" fill="#BB3D2F"/>
<path d="M134.322 151.345C156.906 151.345 181.952 170.489 185.253 191.408C186.65 200.288 182.733 208.154 175.173 211.615C167.192 215.28 158.781 213.564 152.706 207.024C152.09 206.361 151.514 205.649 150.947 204.928C137.272 187.382 137.272 187.382 117.081 195.434C105.427 200.064 95.1025 197.101 90.1988 187.713C85.3733 178.492 88.6555 168.033 99.2833 161.443C109.52 155.127 120.578 150.945 134.322 151.345Z" fill="#476532"/>
<path d="M1130.89 1104.17C1126.19 1123.26 1130.83 1144.75 1130.4 1166.2C1130.19 1176.37 1124.14 1183.56 1114.67 1185.86C1106.93 1187.73 1098.31 1182.94 1093.61 1174.86C1091.66 1171.45 1091.66 1167.79 1091.32 1164.34C1089.16 1142.38 1087.3 1120.35 1092.14 1098.5C1094.69 1087.04 1104.17 1079.98 1114.43 1081.19C1124.07 1082.31 1131.14 1091.16 1130.89 1104.17Z" fill="#476632"/>
<path d="M642.806 1204.4C653.669 1204.26 660.614 1209.02 665.771 1216.17C678.988 1234.48 685.308 1255.74 690.143 1277.36C692.37 1287.41 685.396 1296.86 676.331 1299.18C666.68 1301.65 657.322 1297.34 653.219 1287.58C649.83 1279.51 647.358 1271.06 644.662 1262.71C641.283 1252.23 636.916 1242.49 629.248 1234.16C624.139 1228.61 623.924 1221.32 627.392 1214.52C630.86 1207.72 636.203 1203.74 642.806 1204.4Z" fill="#BB3D2F"/>
<path d="M757.329 600.949C756.968 597.372 758.843 593.56 760.719 589.739C767.927 575.05 773.568 559.645 777.549 543.778C778.294 541.155 779.275 538.604 780.48 536.156C784.924 526.408 793.989 521.797 803.455 524.39C811.992 526.73 818.898 536.945 817.062 546.615C812.749 569.558 804.652 591.627 793.1 611.925C787.786 621.253 778.35 624.139 768.68 620.571C759.947 617.452 757.046 610.492 757.329 600.949Z" fill="#BB3D2F"/>
<path d="M773.935 481.393C774.912 469.218 771.317 457.618 767.41 446.057C766.052 442.061 764.538 438.005 763.962 433.863C762.74 424.895 767.322 417.058 774.98 413.968C784.045 410.293 792.563 412.564 798.287 420.616C806.248 431.796 809.452 444.985 811.757 458.047C813.789 469.539 815.665 481.334 812.363 493.226C809.022 505.353 802.165 510.772 790.033 509.564C779.933 508.589 773.974 500.927 773.935 488.957C773.925 486.52 773.935 484.093 773.935 481.393Z" fill="#476532"/>
<path d="M342.238 568.118C342.16 576.891 340.109 584.768 332.275 589.446C329.586 591.04 326.542 591.943 323.417 592.072C320.292 592.202 317.184 591.555 314.371 590.189C311.559 588.824 309.13 586.782 307.304 584.249C305.478 581.715 304.311 578.768 303.908 575.673C302.003 562.786 295.722 553.351 285.983 545.377C280.63 540.991 275.482 536.458 275.336 528.319C275.199 520.52 277.788 514.72 284.469 510.86C290.985 507.088 297.334 506.766 304.181 510.86C325.955 524.059 339.787 542.306 342.238 568.118Z" fill="#476632"/>
<path d="M694.939 1204.53C712.62 1203.67 720.952 1213.49 725.348 1229.42C728.562 1241.06 733.944 1252.09 737.939 1263.54C740.293 1270.27 740.733 1277.28 737.148 1283.86C733.563 1290.44 727.77 1294.07 719.975 1293.79C716.27 1293.78 712.658 1292.63 709.632 1290.49C706.606 1288.36 704.313 1285.35 703.067 1281.87C696.444 1264.92 690.309 1247.8 684.663 1230.49C681.362 1220.29 684.224 1214.32 693.289 1208.07C694.627 1207.15 695.721 1206.28 695.037 1204.46L694.939 1204.53Z" fill="#E7892B"/>
<path d="M1152.9 1005.56C1168.16 1005.75 1177.32 1020.66 1169.59 1033.41C1160.39 1048.53 1147.46 1060.81 1133.13 1071.17C1125.93 1076.37 1115.5 1074.33 1109.78 1068.24C1106.59 1064.69 1104.79 1060.11 1104.7 1055.35C1104.62 1050.58 1106.26 1045.94 1109.32 1042.28C1118.84 1031.27 1129.18 1020.94 1139.5 1010.66C1143.19 1006.98 1148.05 1004.81 1152.9 1005.56Z" fill="#E7892B"/>
<path d="M444.092 461.8C429.889 461.654 421 449.284 426.089 436.27C431.051 423.598 436.511 411.209 440.595 398.167C443.525 388.896 452.004 384.754 460.707 386.05C469.987 387.425 477.216 394.18 477.079 403.957C476.796 423.667 469.684 441.291 457.044 456.419C453.733 460.386 448.878 462.804 444.092 461.8Z" fill="#BB3D2F"/>
<path d="M810.39 1031.69C802.146 1031.69 796.578 1028.68 792.954 1022.25C789.095 1015.43 789.369 1008.27 793.979 1002.52C803.855 990.195 814.493 978.351 827.318 969.023C836.862 962.082 846.659 963.613 853.526 971.684C860.022 979.316 859.612 989.834 851.905 998.061C843.387 1007.16 834.498 1015.92 825.658 1024.71C821.223 1029.12 816.163 1032.38 810.39 1031.69Z" fill="#BB3D2F"/>
</g>
</svg>
