<svg width="708" height="209" viewBox="0 0 708 209" fill="none" xmlns="http://www.w3.org/2000/svg">
<path d="M6.37001 29.1988H72.193V48.7348H32.122V58.2808H68.53V77.8168H32.122V87.4738H73.192V107.01H6.37001V29.1988ZM117.751 29.1988C126.261 29.1988 133.698 30.7898 140.062 33.9718C146.426 37.1538 151.347 41.7048 154.825 47.6248C158.303 53.4708 160.042 60.2788 160.042 68.0488C160.042 75.8928 158.266 82.7378 154.714 88.5838C151.162 94.4298 146.093 98.9808 139.507 102.237C132.995 105.419 125.41 107.01 116.752 107.01H83.0077V29.1988H117.751ZM118.417 87.0298C123.079 87.0298 126.779 85.3278 129.517 81.9238C132.329 78.5198 133.735 73.9688 133.735 68.2708C133.735 62.4988 132.218 57.8738 129.184 54.3958C126.224 50.9178 122.228 49.1788 117.196 49.1788H108.76V87.0298H118.417ZM191.875 74.7088C191.875 78.4088 192.985 81.4428 195.205 83.8108C197.425 86.1788 200.089 87.3628 203.197 87.3628C206.231 87.3628 208.747 86.2158 210.745 83.9218C212.743 81.5538 213.742 78.4828 213.742 74.7088V29.1988H239.494V74.7088C239.494 81.5168 237.977 87.5108 234.943 92.6908C231.983 97.7968 227.765 101.756 222.289 104.568C216.813 107.38 210.412 108.786 203.086 108.786C195.76 108.786 189.285 107.38 183.661 104.568C178.111 101.756 173.782 97.7968 170.674 92.6908C167.64 87.5108 166.123 81.5168 166.123 74.7088V29.1988H191.875V74.7088Z" fill="#E8892A"/>
<path d="M249.508 29.1988H312.112V48.7348H275.26V62.1658H309.781V81.7018H275.26V107.01H249.508V29.1988ZM344.175 74.7088C344.175 78.4088 345.285 81.4428 347.505 83.8108C349.725 86.1788 352.389 87.3628 355.497 87.3628C358.531 87.3628 361.047 86.2158 363.045 83.9218C365.043 81.5538 366.042 78.4828 366.042 74.7088V29.1988H391.794V74.7088C391.794 81.5168 390.277 87.5108 387.243 92.6908C384.283 97.7968 380.065 101.756 374.589 104.568C369.113 107.38 362.712 108.786 355.386 108.786C348.06 108.786 341.585 107.38 335.961 104.568C330.411 101.756 326.082 97.7968 322.974 92.6908C319.94 87.5108 318.423 81.5168 318.423 74.7088V29.1988H344.175V74.7088ZM460.083 56.1718C455.865 53.7298 451.166 51.5838 445.986 49.7338C440.806 47.8838 436.588 46.9588 433.332 46.9588C430.15 46.9588 428.559 48.1058 428.559 50.3998C428.559 52.1758 429.558 53.5448 431.556 54.5068C433.628 55.4688 436.884 56.5418 441.324 57.7258C446.874 59.2798 451.462 60.8338 455.088 62.3878C458.788 63.9418 462.007 66.4208 464.745 69.8248C467.483 73.1548 468.852 77.5578 468.852 83.0338C468.852 88.6578 467.372 93.3938 464.412 97.2418C461.526 101.016 457.604 103.828 452.646 105.678C447.688 107.528 442.175 108.453 436.107 108.453C429.225 108.453 422.269 107.343 415.239 105.123C408.283 102.829 402.252 99.7208 397.146 95.7988L406.692 76.3738C410.614 79.7778 415.535 82.7008 421.455 85.1428C427.375 87.5108 432.333 88.6948 436.329 88.6948C438.253 88.6948 439.77 88.3618 440.88 87.6958C441.99 86.9558 442.545 85.8458 442.545 84.3658C442.545 82.5898 441.472 81.2208 439.326 80.2588C437.254 79.2228 433.961 78.1498 429.447 77.0398C423.971 75.6338 419.383 74.1908 415.683 72.7108C412.057 71.1568 408.912 68.7888 406.248 65.6068C403.584 62.4248 402.252 58.1698 402.252 52.8418C402.252 47.6618 403.621 43.1478 406.359 39.2998C409.097 35.3778 412.982 32.3808 418.014 30.3088C423.046 28.2368 428.892 27.2008 435.552 27.2008C441.62 27.2008 447.651 28.0518 453.645 29.7538C459.713 31.4558 464.967 33.7128 469.407 36.5248L460.083 56.1718ZM475.518 29.1988H501.27V107.01H475.518V29.1988ZM551.224 27.5338C559.364 27.5338 566.69 29.2728 573.202 32.7508C579.714 36.2288 584.783 41.0388 588.409 47.1808C592.109 53.3228 593.959 60.2418 593.959 67.9378C593.959 75.7078 592.109 82.7008 588.409 88.9168C584.783 95.1328 579.714 100.017 573.202 103.569C566.69 107.047 559.364 108.786 551.224 108.786C543.084 108.786 535.758 107.047 529.246 103.569C522.734 100.017 517.628 95.1328 513.928 88.9168C510.302 82.7008 508.489 75.7078 508.489 67.9378C508.489 60.1678 510.302 53.2118 513.928 47.0698C517.628 40.9278 522.734 36.1548 529.246 32.7508C535.758 29.2728 543.084 27.5338 551.224 27.5338ZM551.557 48.9568C548.597 48.9568 545.822 49.8078 543.232 51.5098C540.716 53.1378 538.681 55.3948 537.127 58.2808C535.647 61.1668 534.907 64.4228 534.907 68.0488C534.907 71.6748 535.647 74.9678 537.127 77.9278C538.681 80.8138 540.716 83.1078 543.232 84.8098C545.822 86.5118 548.597 87.3628 551.557 87.3628C554.517 87.3628 557.218 86.5488 559.66 84.9208C562.102 83.2188 564.026 80.8878 565.432 77.9278C566.838 74.9678 567.541 71.6748 567.541 68.0488C567.541 64.4228 566.838 61.1668 565.432 58.2808C564.026 55.3208 562.102 53.0268 559.66 51.3988C557.218 49.7708 554.517 48.9568 551.557 48.9568ZM653.433 29.1988H676.743V107.01H655.209L624.573 67.2718V107.01H601.152V29.1988H622.686L653.433 69.1588V29.1988Z" fill="#0ADD18"/>
<path d="M304.2 207L300.32 196H271.08L267.08 207H240.71L273.56 129.19H299.98L331.62 207H304.2ZM277.78 177.6H293.99L285.99 154.84L277.78 177.6Z" fill="#0E079E"/>
<path d="M340.94 129.2H403.54V148.74H366.69V162.17H401.21V181.7H366.69V207H340.94V129.2Z" fill="#0E079E"/>
<path d="M460.6 207L451.28 186.8H441.62V207H415.87V129.2H453.5C464.08 129.2 472.257 131.624 478.03 136.47C483.803 141.317 486.687 148.18 486.68 157.06C486.802 162.144 485.719 167.185 483.52 171.77C481.473 175.884 478.296 179.329 474.36 181.7L489.68 207H460.6ZM441.6 167.26H453.48C454.677 167.336 455.877 167.152 456.996 166.723C458.116 166.293 459.131 165.627 459.97 164.77C461.574 162.826 462.385 160.347 462.24 157.83C462.391 155.38 461.576 152.967 459.97 151.11C459.114 150.284 458.094 149.645 456.976 149.235C455.859 148.825 454.668 148.653 453.48 148.73H441.62L441.6 167.26Z" fill="#0E079E"/>
<path d="M501.22 129.2H526.98V207H501.22V129.2Z" fill="#0E079E"/>
<path d="M590.97 151.9C588.177 150.069 584.929 149.051 581.59 148.96C578.659 148.931 575.784 149.762 573.32 151.35C570.816 152.968 568.814 155.254 567.54 157.95C566.133 160.934 565.432 164.201 565.49 167.5C565.437 170.814 566.138 174.097 567.54 177.1C568.807 179.83 570.808 182.153 573.32 183.81C575.77 185.435 578.65 186.289 581.59 186.26C584.746 186.154 587.831 185.297 590.59 183.76C593.826 182.08 596.741 179.842 599.2 177.15L614.08 193C609.667 197.844 604.324 201.752 598.37 204.49C592.214 207.463 585.438 208.923 578.604 208.749C571.77 208.575 565.077 206.772 559.08 203.49C552.911 200.064 547.817 194.988 544.37 188.83C540.78 182.419 538.942 175.177 539.04 167.83C538.929 160.563 540.81 153.404 544.48 147.13C548.069 141.054 553.258 136.08 559.48 132.75C566.158 129.211 573.623 127.419 581.18 127.54C587.357 127.587 593.454 128.929 599.08 131.48C604.767 133.887 609.88 137.473 614.08 142L599.21 159.65C597.009 156.542 594.207 153.906 590.97 151.9Z" fill="#0E079E"/>
<path d="M679.93 207L676.08 196H646.88L642.88 207H616.44L649.3 129.19H675.71L707.35 207H679.93ZM653.51 177.6H669.72L661.72 154.84L653.51 177.6Z" fill="#0E079E"/>
</svg>
