<svg width="120" height="117" viewBox="0 0 120 117" fill="none" xmlns="http://www.w3.org/2000/svg">
<rect width="120" height="117" fill="white"/>
<path d="M54.2007 32.4342V83.6629H31.2666C32.4267 78.675 35.2104 74.0983 39.2732 70.4996C43.336 66.9009 48.4993 64.4382 54.1241 63.4163C54.1241 63.2414 54.1241 63.0762 54.0365 62.9014H31.3761L31.0475 63.1831C27.2378 66.5442 24.2127 70.5387 22.1454 74.9382C20.0781 79.3376 19.0092 84.0555 19 88.8218V94H65.7335V62.9111V32.3468H65.8321H88.7663C87.7715 36.6264 85.5802 40.6156 82.3939 43.948C79.2075 47.2803 75.1282 49.849 70.5306 51.4179V52.574H89.2482C96.7811 45.8069 101.004 36.6787 101 27.1685V22H54.2007V32.4342Z" fill="#0ADD18"/>
<path d="M53.8365 63H54V32.1009L53.6403 31.766C49.8641 28.3454 45.3767 25.6333 40.4364 23.7857C35.496 21.938 30.2001 20.9913 24.8533 21.0001H19V63H53.8801H53.8365ZM30.5867 52.5197V31.9827C36.2038 33.002 41.3645 35.493 45.4254 39.1451C49.4862 42.7972 52.2675 47.4487 53.4223 52.5197H30.5867Z" fill="#0E079E"/>
<path d="M70 62.4656H88.911V82.9836C83.041 81.9712 77.6514 79.4683 73.4281 75.7934C72.1772 74.704 71.0378 73.5225 70.0227 72.2623V87.0164C77.2593 91.5595 85.9682 94.0038 94.9044 94H101V52H70V62.4656Z" fill="#0E079E"/>
</svg>
