<svg width="380" height="46" viewBox="0 0 380 46" fill="none" xmlns="http://www.w3.org/2000/svg">
<path d="M20.5714 7.42857V26.5091V39.503H7.14587C7.79549 36.4255 9.45564 33.5532 11.8376 31.228C14.2917 28.9711 17.2511 27.3982 20.5714 26.7827C20.5714 26.6459 20.5714 26.5775 20.4992 26.4407H7.21805C7.14586 26.5091 7.07368 26.5775 7.0015 26.6459C4.76391 28.6976 3.10376 31.1596 1.87669 33.8951C0.649623 36.6991 0 39.7082 0 42.7857V46H27.3564H27.4286V26.5091V26.304V23.2948V7.36018H40.8541C40.2045 10.4377 38.5444 13.31 36.1624 15.6353C34.4301 17.2766 32.409 18.5076 30.1714 19.3283V20.0805H41.1429C43.3083 18.0289 44.9684 15.6353 46.1233 13.0365C47.3504 10.2325 48 7.29179 48 4.21429V1H20.5714V7.42857Z" fill="#0ADD18"/>
<path d="M19.9298 26H20V6.86016C19.9298 6.79156 19.8596 6.72296 19.7895 6.65435C17.614 4.59631 15.1579 2.94987 12.3509 1.78364C9.47368 0.617414 6.38597 0 3.29825 0H0V26H7.01754H19.9298ZM6.59649 19.5515V6.79156C9.82456 7.40897 12.7719 8.91821 15.0877 11.2507C17.4737 13.5145 19.0175 16.3958 19.6491 19.5515H6.59649Z" fill="#0E079E"/>
<path d="M30 26.4485H40.963V39.2084C37.5556 38.591 34.4444 37.0818 32 34.7493C31.2593 34.0633 30.5926 33.3087 30 32.5541V41.6781C31.4815 42.7071 33.1111 43.5303 34.8889 44.2164C37.9259 45.3826 41.1852 46 44.4444 46H48V20H41.2593H30V26.4485Z" fill="#0E079E"/>
<path d="M69.66 30L68.7 27.52H62.64L61.66 30H57.9L63.92 15.98H67.68L73.56 30H69.66ZM63.74 24.72H67.62L65.7 19.72L63.74 24.72ZM84.5977 20.74C84.1443 20.1667 83.6043 19.7133 82.9777 19.38C82.351 19.0333 81.731 18.86 81.1177 18.86C80.411 18.86 79.7643 19.04 79.1777 19.4C78.6043 19.7467 78.151 20.2333 77.8177 20.86C77.4843 21.4733 77.3177 22.16 77.3177 22.92C77.3177 23.68 77.4843 24.3733 77.8177 25C78.151 25.6133 78.6043 26.1 79.1777 26.46C79.7643 26.8067 80.411 26.98 81.1177 26.98C81.691 26.98 82.291 26.8333 82.9177 26.54C83.5443 26.2467 84.1043 25.8467 84.5977 25.34L86.7377 27.64C85.9777 28.44 85.071 29.08 84.0177 29.56C82.9777 30.0267 81.9443 30.26 80.9177 30.26C79.531 30.26 78.2777 29.94 77.1577 29.3C76.0377 28.66 75.1577 27.7867 74.5177 26.68C73.8777 25.5733 73.5577 24.3333 73.5577 22.96C73.5577 21.6 73.8843 20.3733 74.5377 19.28C75.191 18.1867 76.0843 17.3267 77.2177 16.7C78.3643 16.0733 79.6443 15.76 81.0577 15.76C82.0977 15.76 83.1243 15.98 84.1377 16.42C85.151 16.8467 86.011 17.4333 86.7177 18.18L84.5977 20.74ZM98.2109 20.74C97.7576 20.1667 97.2176 19.7133 96.5909 19.38C95.9643 19.0333 95.3443 18.86 94.7309 18.86C94.0243 18.86 93.3776 19.04 92.7909 19.4C92.2176 19.7467 91.7643 20.2333 91.4309 20.86C91.0976 21.4733 90.9309 22.16 90.9309 22.92C90.9309 23.68 91.0976 24.3733 91.4309 25C91.7643 25.6133 92.2176 26.1 92.7909 26.46C93.3776 26.8067 94.0243 26.98 94.7309 26.98C95.3043 26.98 95.9043 26.8333 96.5309 26.54C97.1576 26.2467 97.7176 25.8467 98.2109 25.34L100.351 27.64C99.5909 28.44 98.6843 29.08 97.6309 29.56C96.5909 30.0267 95.5576 30.26 94.5309 30.26C93.1443 30.26 91.8909 29.94 90.7709 29.3C89.6509 28.66 88.7709 27.7867 88.1309 26.68C87.4909 25.5733 87.1709 24.3333 87.1709 22.96C87.1709 21.6 87.4976 20.3733 88.1509 19.28C88.8043 18.1867 89.6976 17.3267 90.8309 16.7C91.9776 16.0733 93.2576 15.76 94.6709 15.76C95.7109 15.76 96.7376 15.98 97.7509 16.42C98.7643 16.8467 99.6243 17.4333 100.331 18.18L98.2109 20.74ZM101.919 15.98H112.979V18.9H105.579V21.52H112.259V24.42L105.579 24.44V27.08H113.179V30H101.919V15.98ZM124.995 15.98H128.395V30H125.195L118.835 21.62V30H115.415V15.98H118.635L125.015 24.42L124.995 15.98ZM129.917 15.98H141.937V19H137.737V30H134.077V19H129.917V15.98Z" fill="#0ADD18"/>
<path d="M158.156 30L157.196 27.52H151.136L150.156 30H146.396L152.416 15.98H156.176L162.056 30H158.156ZM152.236 24.72H156.116L154.196 19.72L152.236 24.72ZM163.325 15.98H173.805L173.785 18.9H166.985V22.02H173.265V24.94H166.985V30H163.325V15.98ZM183.893 30L181.853 26.12H181.773H179.133V30H175.473V15.98H181.773C183.627 15.98 185.06 16.4133 186.073 17.28C187.1 18.1333 187.613 19.34 187.613 20.9C187.613 21.9533 187.4 22.8667 186.973 23.64C186.547 24.4 185.927 24.9933 185.113 25.42L188.033 30H183.893ZM179.133 23.2H181.793C182.54 23.2 183.113 23.0133 183.513 22.64C183.927 22.2667 184.133 21.7267 184.133 21.02C184.133 20.34 183.927 19.82 183.513 19.46C183.113 19.0867 182.54 18.9 181.793 18.9H179.133V23.2ZM189.946 15.98H193.606V30H189.946V15.98ZM206.473 20.74C206.019 20.1667 205.479 19.7133 204.853 19.38C204.226 19.0333 203.606 18.86 202.993 18.86C202.286 18.86 201.639 19.04 201.053 19.4C200.479 19.7467 200.026 20.2333 199.693 20.86C199.359 21.4733 199.193 22.16 199.193 22.92C199.193 23.68 199.359 24.3733 199.693 25C200.026 25.6133 200.479 26.1 201.053 26.46C201.639 26.8067 202.286 26.98 202.993 26.98C203.566 26.98 204.166 26.8333 204.793 26.54C205.419 26.2467 205.979 25.8467 206.473 25.34L208.613 27.64C207.853 28.44 206.946 29.08 205.893 29.56C204.853 30.0267 203.819 30.26 202.793 30.26C201.406 30.26 200.153 29.94 199.033 29.3C197.913 28.66 197.033 27.7867 196.393 26.68C195.753 25.5733 195.433 24.3333 195.433 22.96C195.433 21.6 195.759 20.3733 196.413 19.28C197.066 18.1867 197.959 17.3267 199.093 16.7C200.239 16.0733 201.519 15.76 202.933 15.76C203.973 15.76 204.999 15.98 206.013 16.42C207.026 16.8467 207.886 17.4333 208.593 18.18L206.473 20.74ZM220.324 30L219.364 27.52H213.304L212.324 30H208.564L214.584 15.98H218.344L224.224 30H220.324ZM214.404 24.72H218.284L216.364 19.72L214.404 24.72ZM240.226 30L239.266 27.52H233.206L232.226 30H228.466L234.486 15.98H238.246L244.126 30H240.226ZM234.306 24.72H238.186L236.266 19.72L234.306 24.72ZM245.395 15.98H249.055V26.88H254.995V30H245.395V15.98ZM256.665 15.98H260.325V26.88H266.265V30H256.665V15.98ZM267.934 15.98H271.594V30H267.934V15.98ZM284.621 30L283.661 27.52H277.601L276.621 30H272.861L278.881 15.98H282.641L288.521 30H284.621ZM278.701 24.72H282.581L280.661 19.72L278.701 24.72ZM299.37 15.98H302.77V30H299.57L293.21 21.62V30H289.79V15.98H293.01L299.39 24.42L299.37 15.98ZM315.652 20.74C315.199 20.1667 314.659 19.7133 314.032 19.38C313.406 19.0333 312.786 18.86 312.172 18.86C311.466 18.86 310.819 19.04 310.232 19.4C309.659 19.7467 309.206 20.2333 308.872 20.86C308.539 21.4733 308.372 22.16 308.372 22.92C308.372 23.68 308.539 24.3733 308.872 25C309.206 25.6133 309.659 26.1 310.232 26.46C310.819 26.8067 311.466 26.98 312.172 26.98C312.746 26.98 313.346 26.8333 313.972 26.54C314.599 26.2467 315.159 25.8467 315.652 25.34L317.792 27.64C317.032 28.44 316.126 29.08 315.072 29.56C314.032 30.0267 312.999 30.26 311.972 30.26C310.586 30.26 309.332 29.94 308.212 29.3C307.092 28.66 306.212 27.7867 305.572 26.68C304.932 25.5733 304.612 24.3333 304.612 22.96C304.612 21.6 304.939 20.3733 305.592 19.28C306.246 18.1867 307.139 17.3267 308.272 16.7C309.419 16.0733 310.699 15.76 312.112 15.76C313.152 15.76 314.179 15.98 315.192 16.42C316.206 16.8467 317.066 17.4333 317.772 18.18L315.652 20.74ZM319.36 15.98H330.42V18.9H323.02V21.52H329.7V24.42L323.02 24.44V27.08H330.62V30H319.36V15.98ZM337.29 15.98H340.95V26.88H346.89V30H337.29V15.98ZM347.339 15.98H359.359V19H355.159V30H351.499V19H347.339V15.98ZM366.884 15.98C368.351 15.98 369.644 16.2733 370.764 16.86C371.898 17.4467 372.778 18.2733 373.404 19.34C374.031 20.3933 374.344 21.6067 374.344 22.98C374.344 24.3533 374.024 25.5733 373.384 26.64C372.758 27.7067 371.864 28.5333 370.704 29.12C369.558 29.7067 368.238 30 366.744 30H360.844V15.98H366.884ZM366.984 27.04C367.691 27.04 368.318 26.8733 368.864 26.54C369.411 26.2067 369.838 25.7333 370.144 25.12C370.451 24.5067 370.604 23.8067 370.604 23.02C370.604 22.22 370.438 21.5133 370.104 20.9C369.784 20.2867 369.338 19.8133 368.764 19.48C368.191 19.1333 367.538 18.96 366.804 18.96H364.504V27.04H366.984ZM376.768 26.7C377.275 26.7 377.688 26.86 378.008 27.18C378.328 27.5 378.488 27.9133 378.488 28.42C378.488 28.9267 378.328 29.3467 378.008 29.68C377.688 30 377.275 30.16 376.768 30.16C376.275 30.16 375.868 30 375.548 29.68C375.228 29.3467 375.068 28.9267 375.068 28.42C375.068 27.9133 375.221 27.5 375.528 27.18C375.848 26.86 376.261 26.7 376.768 26.7Z" fill="#0E079E"/>
</svg>
