<svg width="192" height="216" viewBox="0 0 192 216" fill="none" xmlns="http://www.w3.org/2000/svg">
<path d="M120.15 100.38C126.65 100.38 131.63 101.44 135.85 104.91C137.644 106.398 139.252 108.097 140.64 109.97C141.142 110.575 141.387 111.353 141.322 112.136C141.256 112.92 140.886 113.647 140.29 114.16C139.738 114.686 139.001 114.973 138.239 114.958C137.476 114.943 136.751 114.627 136.22 114.08C135.4 113.33 134.628 112.528 133.91 111.68C132.607 110.138 130.988 108.894 129.163 108.031C127.338 107.169 125.349 106.708 123.33 106.68C116.243 106.4 109.188 107.769 102.72 110.68C100.632 111.569 98.7925 112.955 97.3617 114.717C95.931 116.479 94.952 118.564 94.51 120.79C94.1741 122.221 94.3286 123.724 94.9488 125.056C95.569 126.389 96.6188 127.475 97.93 128.14C98.48 128.45 99.05 128.7 99.61 129C99.9862 129.16 100.327 129.393 100.614 129.685C100.9 129.977 101.126 130.322 101.279 130.702C101.431 131.081 101.508 131.487 101.504 131.896C101.5 132.305 101.415 132.709 101.255 133.085C101.095 133.461 100.862 133.802 100.57 134.088C100.278 134.375 99.9325 134.601 99.5532 134.753C99.1739 134.906 98.7682 134.983 98.3593 134.979C97.9504 134.975 97.5462 134.89 97.17 134.73C94.0019 133.704 91.3419 131.513 89.7285 128.6C88.1151 125.687 87.6688 122.27 88.48 119.04C90.26 111.68 95.03 106.94 101.8 104.19C107.661 101.904 113.864 100.617 120.15 100.38Z" fill="#456432"/>
<path d="M71.79 47.6902C71.9078 51.2037 71.4863 54.7145 70.54 58.1002C70.3048 59.1449 69.7897 60.1059 69.05 60.8802C68.6255 61.3574 68.0564 61.6823 67.4296 61.8051C66.8029 61.928 66.1531 61.8419 65.58 61.5602C64.9629 61.3107 64.455 60.8496 64.1471 60.2595C63.8392 59.6694 63.7516 58.989 63.9 58.3402C64.13 57.1102 64.5 55.9102 64.8 54.6902C65.7306 51.1881 65.9348 47.5325 65.4 43.9486C64.8651 40.3646 63.6026 36.928 61.69 33.8502C57.7967 27.1714 55.4492 19.7052 54.82 12.0002C54.64 10.2302 54.35 8.47016 54.07 6.71016C53.76 4.79016 54.4 3.23018 55.8 2.63018C57.99 1.69018 60.03 3.24017 60.33 5.97017C60.78 10.1002 61.33 14.2102 62.12 18.2902C62.9843 22.534 64.5816 26.5947 66.84 30.2902C70.08 35.7702 72.08 41.5802 71.79 47.6902Z" fill="#BC3C2D"/>
<path d="M149.43 115.56C149.43 110.66 151.62 107 154.43 103.64C158.43 98.84 163.02 94.55 167.17 89.88C169.683 87.2573 171.918 84.382 173.84 81.3C174.76 79.69 175.97 79.22 177.32 79.61C177.779 79.7342 178.204 79.9619 178.562 80.2755C178.92 80.5892 179.201 80.9805 179.385 81.4196C179.568 81.8587 179.648 82.3339 179.62 82.8089C179.591 83.2839 179.455 83.746 179.22 84.16C178.08 86.4648 176.619 88.5961 174.88 90.49C170.95 95.17 166.58 99.49 162.46 103.96C160.373 106.051 158.522 108.365 156.94 110.86C155.07 114.12 155.18 117.19 157.55 120.14C157.954 120.53 158.277 120.995 158.5 121.51C158.723 122.025 158.842 122.579 158.85 123.14C158.851 123.65 158.718 124.151 158.465 124.594C158.211 125.037 157.847 125.405 157.407 125.663C156.967 125.921 156.467 126.059 155.957 126.064C155.447 126.069 154.945 125.94 154.5 125.69C152.29 124.41 151.15 122.23 150.23 119.98C149.647 118.582 149.374 117.074 149.43 115.56Z" fill="#BC3C2E"/>
<path d="M73.59 42.4598C73.7306 33.509 75.9236 24.7098 80 16.7398C80.81 15.1298 82 14.4198 83.47 14.6598C85.82 15.0598 86.72 17.1798 85.47 19.5998C84.241 22.0144 83.2044 24.5222 82.37 27.0998C80.2877 33.4183 79.4755 40.0862 79.98 46.7198C80.31 51.2598 81.2 55.7198 83.86 59.6298C84.26 60.2298 84.75 60.7798 85.19 61.3498C86.59 63.1598 86.59 64.7598 85.19 66.0098C83.79 67.2598 82.19 67.0098 80.57 65.4698C78.5685 63.3587 77.0381 60.8466 76.08 58.0998C74.13 53.1898 73.65 48.0598 73.59 42.4598Z" fill="#E8892A"/>
<path d="M191.08 78.0599C190.824 79.5479 190.377 80.9965 189.75 82.3699C188.529 85.9969 187.09 89.5468 185.44 92.9999C182.252 99.3567 177.622 104.88 171.92 109.13C169.422 110.984 167.177 113.156 165.24 115.59C164.39 116.71 163.4 117.83 161.76 117.59C161.26 117.523 160.785 117.331 160.379 117.032C159.973 116.733 159.648 116.337 159.436 115.879C159.224 115.422 159.13 114.918 159.164 114.415C159.198 113.911 159.358 113.425 159.63 113C160.576 111.245 161.845 109.684 163.37 108.4C165.87 106.18 168.44 104.04 170.99 101.87C176.41 97.2599 179.84 91.3099 182.35 84.7599C183.19 82.5499 183.97 80.3199 184.77 78.0899C185.001 77.3571 185.375 76.6773 185.87 76.0899C186.264 75.6202 186.795 75.2864 187.389 75.1356C187.983 74.9849 188.61 75.0249 189.18 75.2499C189.755 75.4543 190.25 75.8373 190.592 76.3429C190.933 76.8484 191.105 77.4501 191.08 78.0599Z" fill="#456432"/>
<path d="M166.15 180.12C166.22 176.12 167.35 172.68 168.04 169.12C168.287 167.694 168.621 166.285 169.04 164.9C170.165 161.462 172.376 158.483 175.34 156.41C176.85 155.28 178.34 154.14 179.8 152.92C181.358 151.598 182.55 149.896 183.26 147.98C183.458 147.273 183.888 146.653 184.481 146.221C185.075 145.789 185.797 145.57 186.53 145.6C188.53 145.79 189.67 147.41 189.22 149.6C188.551 152.25 187.135 154.651 185.14 156.52C183.105 158.463 180.933 160.258 178.64 161.89C176.611 163.413 175.215 165.631 174.72 168.12C174.09 171.19 173.33 174.23 172.72 177.32C172.22 180.06 172.72 182.72 173.09 185.4C173.178 185.972 173.221 186.551 173.22 187.13C173.334 187.925 173.127 188.734 172.645 189.377C172.163 190.02 171.446 190.446 170.65 190.56C169.854 190.674 169.046 190.467 168.403 189.985C167.759 189.503 167.334 188.785 167.22 187.99C166.565 185.416 166.206 182.775 166.15 180.12Z" fill="#BC3D2F"/>
<path d="M100.74 141.18C100.24 143.93 99.67 146.68 99.26 149.45C98.7002 152.65 98.6698 155.92 99.17 159.13C99.4217 160.649 100.044 162.083 100.983 163.304C101.921 164.525 103.147 165.496 104.55 166.13C107.086 167.333 109.815 168.078 112.61 168.33C113.19 168.381 113.765 168.478 114.33 168.62C115.035 168.823 115.643 169.273 116.044 169.887C116.445 170.5 116.613 171.238 116.516 171.965C116.419 172.692 116.064 173.36 115.516 173.847C114.968 174.335 114.263 174.609 113.53 174.62C108.31 174.22 103.28 173.11 98.95 169.94C94.95 167.03 93.19 162.94 92.74 158.13C92.19 152.13 93.25 146.38 94.56 140.61C94.6578 139.981 94.937 139.395 95.3633 138.922C95.7896 138.45 96.3445 138.112 96.96 137.95C97.5213 137.776 98.1225 137.779 98.6822 137.958C99.242 138.137 99.7334 138.483 100.09 138.95C100.563 139.594 100.793 140.383 100.74 141.18Z" fill="#456432"/>
<path d="M29.86 47.5701C29.86 47.8901 29.86 48.4201 29.86 48.9501C29.8549 49.7319 29.5629 50.4847 29.0393 51.0654C28.5157 51.6461 27.7972 52.0143 27.02 52.1001C26.2355 52.1319 25.4674 51.8696 24.8662 51.3646C24.265 50.8596 23.874 50.1483 23.77 49.37C22.87 42.78 25.23 36.68 31 33.49C37 30.17 43.64 31.1001 48.7 35.8201C51.5105 38.5947 53.5744 42.0345 54.7 45.8201C54.8744 46.237 54.962 46.6852 54.9577 47.1371C54.9533 47.5891 54.857 48.0354 54.6745 48.449C54.4921 48.8625 54.2274 49.2345 53.8965 49.5425C53.5656 49.8504 53.1756 50.0877 52.75 50.24C51.16 50.79 49.64 49.92 48.81 47.93C48.1295 46.0143 47.2585 44.1718 46.21 42.43C45.2432 40.8535 43.8421 39.5895 42.1748 38.7895C40.5074 37.9895 38.6447 37.6877 36.81 37.9201C34.6351 38.3305 32.701 39.5609 31.4075 41.3569C30.114 43.1529 29.56 45.3772 29.86 47.5701Z" fill="#E8892A"/>
<path d="M129.35 46C138.26 46 143.81 50.33 146.59 59C146.973 60.2518 147.27 61.528 147.48 62.82C147.82 64.93 146.75 66.59 144.94 66.92C143.44 67.18 141.94 66.03 141.47 64.09C141.024 61.761 140.246 59.5081 139.16 57.4C138.124 55.4527 136.483 53.8947 134.485 52.9605C132.486 52.0263 130.239 51.7664 128.08 52.22C124.082 52.9399 120.312 54.5987 117.08 57.06C116.221 57.8576 115.11 58.3314 113.94 58.4C113.328 58.4223 112.725 58.2452 112.221 57.8954C111.718 57.5455 111.342 57.0418 111.15 56.46C110.913 55.8959 110.862 55.271 111.004 54.6758C111.146 54.0807 111.474 53.5463 111.94 53.15C114.093 51.2623 116.516 49.7084 119.13 48.54C122.311 46.9604 125.799 46.0936 129.35 46Z" fill="#E8892A"/>
<path d="M94.69 41.2602C95.1153 32.8346 97.1521 24.5688 100.69 16.9102C101.32 15.5702 102.22 14.5202 103.85 14.5102C104.412 14.4876 104.968 14.6286 105.451 14.9162C105.933 15.2038 106.322 15.6256 106.57 16.1302C106.813 16.5783 106.941 17.0802 106.941 17.5901C106.941 18.1001 106.813 18.602 106.57 19.0501C104.374 23.6833 102.797 28.5854 101.88 33.6302C101.21 37.6902 100.69 41.7602 101.36 45.8902C101.465 46.8805 101.852 47.82 102.474 48.5979C103.096 49.3758 103.927 49.9595 104.87 50.2801C106.94 51.0901 107.81 52.7301 107.23 54.2801C106.59 56.0201 104.94 56.7601 102.94 56.1801C98.12 54.7901 95.87 51.2601 95.02 46.5901C94.738 44.8283 94.6274 43.0433 94.69 41.2602Z" fill="#BC3D2F"/>
<path d="M91.08 142.61C91.1089 146.409 90.2889 150.168 88.68 153.61C86.68 157.89 87.52 161.61 90.28 165.12C90.8606 165.835 91.3697 166.605 91.8 167.42C92.2376 168.099 92.3876 168.924 92.2169 169.713C92.0462 170.503 91.5689 171.192 90.89 171.63C90.211 172.067 89.386 172.217 88.5965 172.047C87.807 171.876 87.1176 171.399 86.68 170.72C84.8403 168.524 83.3372 166.067 82.22 163.43C80.9801 160.331 80.9302 156.883 82.08 153.75C83.03 150.92 84.31 148.17 84.67 145.15C85.0148 141.57 84.613 137.957 83.49 134.54C83.2969 133.946 83.1727 133.332 83.12 132.71C82.98 130.71 83.69 129.63 85.41 129.23C86.2039 129.068 87.0295 129.218 87.7162 129.648C88.4029 130.078 88.8983 130.755 89.1 131.54C90.3237 135.106 90.9915 138.84 91.08 142.61Z" fill="#E8892B"/>
<path d="M120.35 72.3099C120.456 73.045 120.286 73.7934 119.872 74.4101C119.458 75.0269 118.83 75.4682 118.11 75.6486C117.389 75.8291 116.627 75.7358 115.972 75.3869C115.316 75.038 114.813 74.4583 114.56 73.7599C113.917 72.14 113.096 70.597 112.11 69.1599C110.936 67.5485 109.344 66.2892 107.505 65.5184C105.667 64.7476 103.652 64.4948 101.68 64.7874C99.7085 65.08 97.8543 65.9068 96.3188 67.1782C94.7834 68.4496 93.6252 70.1171 92.97 71.9999C92.6935 72.7725 92.3418 73.5161 91.92 74.2199C91.5517 74.8366 90.9744 75.3007 90.293 75.5278C89.6116 75.755 88.8713 75.7301 88.2066 75.4577C87.542 75.1853 86.9972 74.6835 86.6711 74.0434C86.3451 73.4034 86.2595 72.6677 86.43 71.9699C87.96 65.7099 91.71 61.3599 97.84 59.2899C107.34 56.0799 116.39 61.3399 119.95 70.3799C120.261 70.9731 120.4 71.6418 120.35 72.3099Z" fill="#456431"/>
<path d="M85.76 177.81C85.76 175.69 86.84 174.18 88.55 174.03C88.9642 173.987 89.3828 174.03 89.7793 174.158C90.1757 174.285 90.5412 174.494 90.8526 174.771C91.1639 175.047 91.4143 175.386 91.5877 175.764C91.7612 176.143 91.8539 176.553 91.86 176.97C92.52 184.28 95.86 190.63 98.94 197.06C100.641 200.586 101.772 204.359 102.29 208.24C102.504 209.477 102.784 210.702 103.13 211.91C103.27 212.286 103.334 212.687 103.316 213.088C103.299 213.49 103.201 213.883 103.028 214.246C102.856 214.609 102.612 214.934 102.312 215.2C102.011 215.467 101.661 215.671 101.28 215.8C100.54 216.059 99.7302 216.031 99.0099 215.722C98.2896 215.413 97.7115 214.845 97.39 214.13C96.6664 212.596 96.2357 210.941 96.12 209.25C95.2438 204.24 93.5082 199.419 90.99 195C88.3004 189.906 86.5299 184.378 85.76 178.67C85.7453 178.383 85.7453 178.096 85.76 177.81Z" fill="#456431"/>
<path d="M34.66 69.5598C28.66 69.5598 24.05 67.6998 20.66 63.2498C19.9046 62.3917 19.3466 61.3784 19.0253 60.2812C18.7039 59.1841 18.627 58.0299 18.8 56.8998C18.8898 56.2185 19.2245 55.5932 19.7416 55.1405C20.2587 54.6878 20.9228 54.4388 21.61 54.4398C22.2769 54.3661 22.9479 54.5361 23.4992 54.9184C24.0506 55.3007 24.4451 55.8694 24.61 56.5198C25.61 61.2498 29.08 62.9298 33.26 63.3098C35.0317 63.4472 36.8127 63.22 38.4931 62.642C40.1735 62.0641 41.7176 61.1479 43.03 59.9498C44.823 58.3838 46.3319 56.5197 47.49 54.4398C48.49 52.6498 49.71 52.0698 51.26 52.3898C51.6796 52.454 52.0796 52.6107 52.4311 52.8486C52.7826 53.0866 53.0767 53.3998 53.2921 53.7655C53.5076 54.1312 53.6389 54.5403 53.6765 54.9631C53.7142 55.3859 53.6573 55.8117 53.51 56.2098C52.64 58.9698 50.72 61.0398 48.83 63.1298C47.0204 65.0976 44.8332 66.681 42.3988 67.7857C39.9644 68.8903 37.3325 69.4937 34.66 69.5598Z" fill="#BC3D2F"/>
<path d="M82.81 47.0002C82.99 40.0002 84.7 33.7902 86.76 27.6302C87.36 25.8402 88.02 24.0701 88.69 22.3101C88.8443 21.6929 89.1659 21.1302 89.6193 20.6838C90.0727 20.2375 90.6404 19.9248 91.26 19.7802C91.7748 19.6735 92.3087 19.704 92.808 19.8687C93.3073 20.0333 93.7546 20.3263 94.105 20.7182C94.4555 21.1102 94.6967 21.5874 94.8047 22.1019C94.9126 22.6165 94.8834 23.1504 94.72 23.6501C94.17 25.6501 93.41 27.5802 92.72 29.5402C91.1257 33.9511 89.9766 38.5104 89.29 43.1501C89.04 45.0319 89.04 46.9384 89.29 48.8202C89.3393 49.9174 89.6966 50.9786 90.3209 51.8823C90.9451 52.786 91.8112 53.4957 92.82 53.9301C93.2119 54.0716 93.5701 54.2933 93.8716 54.5808C94.1732 54.8684 94.4115 55.2156 94.5715 55.6004C94.7314 55.9852 94.8094 56.3991 94.8006 56.8157C94.7917 57.2323 94.6962 57.6425 94.52 58.0201C94.3672 58.4081 94.1351 58.7599 93.8387 59.0531C93.5423 59.3464 93.188 59.5746 92.7985 59.7233C92.409 59.872 91.9927 59.9378 91.5763 59.9166C91.1599 59.8954 90.7524 59.7876 90.38 59.6002C86.09 58.0002 83.93 54.6701 83.19 50.3301C82.873 49.2502 82.7445 48.1237 82.81 47.0002Z" fill="#456432"/>
<path d="M122.72 83.47C122.35 92.72 116.99 99.27 108.8 100.56C103.8 101.34 97.43 97.45 95.96 92.56C95.4768 91.4508 95.2413 90.2496 95.27 89.04C95.2903 88.3507 95.5652 87.6933 96.0416 87.1947C96.5181 86.6961 97.1623 86.3916 97.85 86.34C98.426 86.2322 99.0214 86.312 99.5488 86.5676C100.076 86.8232 100.508 87.2411 100.78 87.76C101.077 88.2547 101.299 88.7905 101.44 89.35C101.699 90.4154 102.222 91.3983 102.962 92.2077C103.702 93.0172 104.633 93.6271 105.671 93.981C106.709 94.3349 107.819 94.4213 108.899 94.2324C109.979 94.0435 110.994 93.5852 111.85 92.9C115.58 90.18 116.85 86.38 116.25 81.9C115.93 79.36 117.52 77.62 119.82 78.12C120.439 78.2658 121.004 78.585 121.449 79.0401C121.893 79.4952 122.199 80.0675 122.33 80.69C122.624 81.5862 122.756 82.5275 122.72 83.47Z" fill="#E8892A"/>
<path d="M118.36 109C123.5 109 127.6 109.73 131.3 112C131.914 112.393 132.47 112.872 132.95 113.42C133.506 113.934 133.855 114.635 133.928 115.389C134.002 116.143 133.796 116.898 133.35 117.51C132.848 118.109 132.142 118.501 131.368 118.61C130.594 118.719 129.808 118.537 129.16 118.1C127.997 117.236 126.704 116.561 125.33 116.1C118.71 114.43 112.48 114.92 107.01 119.47C105.529 120.74 104.451 122.416 103.91 124.29C103.18 126.56 101.69 127.47 99.8 126.9C98.19 126.42 97.35 124.48 97.97 122.41C99.65 116.73 103.6 113.15 108.91 110.98C111.885 109.661 115.106 108.987 118.36 109Z" fill="#BC3D2F"/>
<path d="M75.85 73.6602C78.8087 74.3122 81.6071 75.5498 84.08 77.3002C89.76 81.0102 92.73 86.6802 95.08 92.7802C96.1748 95.4629 96.9632 98.2606 97.43 101.12C97.55 101.872 97.4193 102.643 97.0578 103.314C96.6964 103.984 96.1243 104.517 95.43 104.83C94.8595 105.088 94.2189 105.146 93.6112 104.995C93.0036 104.845 92.4643 104.494 92.08 104C91.6137 103.381 91.3204 102.65 91.23 101.88C90.2872 96.922 88.4471 92.1775 85.8 87.8802C83.2297 83.763 79.1351 80.8296 74.41 79.7202C72.41 79.2002 71.6 77.9902 71.84 76.1202C72 74.6202 73.34 73.6502 75.85 73.6602Z" fill="#456431"/>
<path d="M169.08 80.5102C169.07 81.4065 168.711 82.2637 168.08 82.9002C165.496 86.1138 162.7 89.1506 159.71 91.9902C156.25 95.5202 152.71 98.9902 149.89 103.09C148.91 104.65 148.041 106.278 147.29 107.96C146.42 109.72 144.84 110.48 143.29 109.96C141.74 109.44 141.04 107.86 141.62 105.85C142.607 102.951 144.115 100.257 146.07 97.9002C149.66 93.1002 154.12 89.1102 158.25 84.8102C160.17 82.8102 162.04 80.8102 163.79 78.6402C164.2 78.1174 164.777 77.7501 165.424 77.5992C166.071 77.4483 166.751 77.5227 167.35 77.8102C167.904 77.9943 168.378 78.3628 168.693 78.8542C169.007 79.3456 169.144 79.9301 169.08 80.5102Z" fill="#E8892A"/>
<path d="M99.84 80.1999C100.01 82.8299 99.42 83.9899 97.65 84.5099C96.9564 84.7571 96.1931 84.719 95.5276 84.404C94.862 84.0891 94.3486 83.523 94.1 82.8299C91.76 77.2799 95.32 70.1299 101.1 68.7099C103.108 68.2734 105.204 68.5301 107.048 69.4382C108.891 70.3462 110.372 71.8519 111.25 73.7099C113.75 78.7099 112.74 83.5099 109.86 88.0099C109.651 88.3417 109.378 88.6279 109.056 88.8514C108.734 89.0748 108.37 89.2309 107.986 89.3103C107.602 89.3897 107.206 89.3907 106.822 89.3133C106.438 89.2359 106.073 89.0817 105.75 88.8599C105.097 88.4742 104.614 87.8554 104.399 87.1281C104.184 86.4008 104.252 85.6189 104.59 84.9399C105.404 83.4539 105.975 81.8468 106.28 80.1799C106.463 78.7807 106.14 77.3622 105.37 76.1799C105.145 75.787 104.825 75.4569 104.44 75.2199C104.054 74.9829 103.615 74.8467 103.163 74.8238C102.711 74.8009 102.26 74.8921 101.853 75.0888C101.445 75.2856 101.093 75.5817 100.83 75.9499C100.373 76.5478 100.049 77.2358 99.8782 77.9685C99.7076 78.7012 99.6945 79.4618 99.84 80.1999Z" fill="#BC3C2E"/>
<path d="M26.08 15.1002C28.1298 15.0143 30.1612 15.5178 31.9336 16.5511C33.7059 17.5844 35.1449 19.1041 36.08 20.9302C36.4311 21.6641 36.9827 22.2836 37.6711 22.7172C38.3595 23.1507 39.1565 23.3806 39.97 23.3802C43.12 23.6002 46.35 23.6002 49.35 24.9502C50.7741 25.4997 52.0511 26.3727 53.08 27.5002C53.6877 28.1089 54.0413 28.9259 54.0692 29.7856C54.097 30.6453 53.7971 31.4835 53.23 32.1302C51.98 33.3602 50.23 33.3302 48.7 31.8602C47.4308 30.7732 45.8467 30.1214 44.18 30.0002C42.08 29.7102 39.95 29.6202 37.84 29.4102C35.06 29.1302 32.84 27.9602 31.54 25.4102C30.08 22.4102 27.9 20.9602 24.45 21.4102C24.0177 21.5032 23.5702 21.4994 23.1395 21.3992C22.7088 21.299 22.3056 21.1048 21.9587 20.8306C21.6119 20.5563 21.3299 20.2088 21.133 19.8129C20.9362 19.4169 20.8293 18.9823 20.82 18.5402C20.8353 17.6821 21.1823 16.8633 21.7883 16.2555C22.3942 15.6477 23.212 15.2982 24.07 15.2802C24.75 15.1502 25.43 15.1402 26.08 15.1002Z" fill="#BC3D2F"/>
<path d="M161.94 147.46C161.94 154.95 158.32 160.21 151.78 163.62C150.78 164.15 149.73 164.73 148.66 165.17C147.961 165.522 147.155 165.599 146.401 165.387C145.648 165.174 145.002 164.686 144.59 164.02C144.183 163.289 144.082 162.426 144.309 161.621C144.536 160.815 145.072 160.132 145.8 159.72C147.35 158.72 149.02 157.95 150.58 156.97C154.78 154.35 156 150.38 155.58 145.69C155.217 143.447 154.712 141.229 154.07 139.05C153.68 137.29 154.27 136.05 155.72 135.47C156.071 135.291 156.454 135.186 156.848 135.162C157.241 135.138 157.634 135.195 158.004 135.33C158.374 135.465 158.712 135.675 158.997 135.947C159.282 136.219 159.508 136.547 159.66 136.91C160.797 139.268 161.498 141.812 161.73 144.42C161.84 145.42 161.87 146.44 161.94 147.46Z" fill="#BC3C2E"/>
<path d="M89.75 107.55C89.7486 109.365 89.5575 111.175 89.18 112.95C89.0335 113.77 88.5866 114.507 87.9265 115.015C87.2664 115.524 86.4405 115.768 85.61 115.7C83.98 115.44 83 114.2 83.15 112.18C83.5251 109.152 83.5251 106.089 83.15 103.06C82.23 97.8201 80.22 93.2401 75.59 90.1601C74.73 89.5901 73.75 89.0801 73.46 87.9001C73.2859 87.3416 73.2724 86.7455 73.4209 86.1796C73.5694 85.6138 73.8741 85.1011 74.3 84.7001C74.7089 84.2759 75.2412 83.9915 75.8211 83.8873C76.401 83.7832 76.9991 83.8647 77.53 84.1201C79.9799 85.2134 82.1129 86.9095 83.73 89.0501C87.99 94.3801 89.64 100.6 89.75 107.55Z" fill="#E7892B"/>
<path d="M65.83 67.7602C65.919 69.1401 65.6652 70.5206 65.0912 71.7787C64.5171 73.0367 63.6407 74.1331 62.54 74.9702C60 76.9702 59.99 79.1602 61.02 81.8902C62.0962 84.737 62.9651 87.658 63.62 90.6302C64.06 92.6302 63.14 94.4402 61.49 94.8502C61.074 94.9487 60.6426 94.9629 60.2211 94.8919C59.7996 94.8209 59.3966 94.6662 59.0358 94.4369C58.6751 94.2076 58.364 93.9083 58.1208 93.5568C57.8776 93.2053 57.7073 92.8086 57.62 92.3902C56.44 88.4602 55.29 84.5302 54.21 80.5702C53.7581 79.1262 53.7249 77.5837 54.1143 76.1217C54.5037 74.6596 55.2997 73.338 56.41 72.3101C56.89 71.8301 57.34 71.3101 57.84 70.8601C58.4921 70.3532 58.9869 69.6715 59.2666 68.8943C59.5463 68.1171 59.5995 67.2764 59.42 66.4702C59.2554 65.725 59.381 64.9452 59.7711 64.2894C60.1613 63.6336 60.7867 63.1511 61.52 62.9402C62.2773 62.7342 63.0841 62.8166 63.7842 63.1713C64.4843 63.5259 65.028 64.1277 65.31 64.8601C65.7245 65.7677 65.9034 66.7651 65.83 67.7602Z" fill="#BC3C2E"/>
<path d="M105.61 37.8701C105.53 32.1001 107.2 26.7101 109.16 21.3901C109.52 20.3901 109.81 19.3901 110.16 18.3901C110.376 17.6891 110.841 17.0914 111.467 16.71C112.094 16.3286 112.838 16.1899 113.56 16.3201C114.268 16.4073 114.917 16.7565 115.38 17.2989C115.843 17.8413 116.085 18.5375 116.06 19.2501C116.054 20.8046 115.713 22.3396 115.06 23.7501C112.958 28.4446 111.89 33.5365 111.93 38.6801C112.041 40.7563 112.417 42.8098 113.05 44.7901C113.302 45.4703 113.447 46.1855 113.48 46.9101C113.502 47.5862 113.295 48.25 112.892 48.7936C112.49 49.3372 111.915 49.7288 111.262 49.9048C110.609 50.0809 109.916 50.031 109.294 49.7633C108.673 49.4956 108.161 49.0258 107.84 48.4301C106.52 45.7322 105.771 42.7909 105.64 39.7901C105.57 39.1301 105.61 38.5001 105.61 37.8701Z" fill="#E8892A"/>
<path d="M73.84 113C73.8096 111.929 73.924 110.86 74.18 109.82C74.6183 106.987 74.3433 104.09 73.38 101.39C73.2256 100.934 73.0954 100.47 72.99 99.9997C72.8069 99.2632 72.904 98.4849 73.2625 97.8159C73.621 97.147 74.2153 96.6351 74.93 96.3797C75.6406 96.1027 76.43 96.1067 77.1377 96.3909C77.8455 96.6751 78.4184 97.2182 78.74 97.9097C80.2016 101.134 80.8604 104.665 80.66 108.2C80.5704 109.4 80.4202 110.595 80.21 111.78C79.8 114.33 80.87 116.39 82.29 118.36C83.45 119.97 84.59 121.59 85.68 123.25C86.0717 123.781 86.288 124.42 86.2987 125.08C86.3095 125.74 86.1142 126.386 85.74 126.93C85.4084 127.415 84.9417 127.792 84.3977 128.014C83.8537 128.236 83.2564 128.294 82.68 128.18C82.294 128.138 81.9225 128.009 81.5934 127.803C81.2643 127.597 80.9862 127.319 80.78 126.99C78.8028 124.479 76.989 121.843 75.35 119.1C74.2821 117.249 73.7587 115.135 73.84 113Z" fill="#BC3D2F"/>
<path d="M144.18 135.62C144.144 140.224 143.276 144.784 141.62 149.08C140.85 151.08 139.4 152.3 138 152.19C135.78 152.01 134.6 149.99 135.43 147.69C136.282 145.434 136.951 143.113 137.43 140.75C138.415 135.533 137.787 130.141 135.63 125.29C135.34 124.63 134.97 123.99 134.72 123.29C134.415 122.578 134.392 121.777 134.655 121.049C134.917 120.32 135.446 119.718 136.135 119.365C136.824 119.011 137.621 118.931 138.366 119.142C139.111 119.352 139.749 119.838 140.15 120.5C141.181 122.141 141.979 123.918 142.52 125.78C143.112 127.668 143.566 129.596 143.88 131.55C144.121 132.892 144.222 134.256 144.18 135.62Z" fill="#E7892B"/>
<path d="M38.54 87.8302C37.32 87.7002 36.54 86.5002 35.95 85.1202C35.3061 83.3473 34.4888 81.6424 33.51 80.0302C33.4162 79.861 33.3127 79.6974 33.2 79.5402C30.28 76.1202 27.65 75.8502 25.04 79.6802C24.45 80.5602 23.98 81.5302 23.36 82.4002C22.9206 83.1107 22.2223 83.6226 21.4125 83.8279C20.6026 84.0331 19.7448 83.9156 19.02 83.5002C17.59 82.6202 17.29 81.1402 18.09 79.3202C19.1234 76.6859 20.8513 74.3809 23.09 72.6502C27.53 69.4602 32.8 70.0702 36.84 74.2202C39.3813 76.9876 41.1836 80.3514 42.08 84.0002C42.68 86.0802 41.13 87.9302 38.54 87.8302Z" fill="#456432"/>
<path d="M146.55 84.7199C144.484 84.6985 142.459 84.1441 140.67 83.1105C138.882 82.0769 137.39 80.599 136.34 78.8199C135.25 77.0599 135.46 74.8899 136.86 74.0299C137.268 73.7964 137.72 73.6492 138.187 73.5975C138.654 73.5459 139.127 73.5908 139.576 73.7296C140.026 73.8684 140.441 74.0981 140.798 74.4043C141.155 74.7106 141.445 75.0869 141.65 75.5099C143.04 78.0699 145.83 78.9899 148.97 78.2499C152.57 77.3899 155.11 75.0999 157.23 72.2499C157.57 71.7799 157.87 71.2499 158.23 70.8299C158.682 70.3037 159.301 69.9502 159.984 69.8295C160.667 69.7088 161.371 69.8283 161.975 70.1677C162.58 70.5072 163.048 71.0456 163.301 71.6913C163.553 72.3371 163.574 73.0504 163.36 73.7099C162.34 76.0203 160.812 78.0711 158.89 79.7099C155.541 82.8531 151.142 84.6388 146.55 84.7199Z" fill="#456432"/>
<path d="M118.54 157C116.8 157.011 115.073 156.696 113.45 156.07C112.698 155.777 112.084 155.213 111.729 154.489C111.373 153.765 111.302 152.934 111.53 152.16C111.65 151.774 111.846 151.416 112.107 151.107C112.369 150.799 112.69 150.546 113.051 150.365C113.413 150.184 113.807 150.078 114.211 150.053C114.614 150.028 115.019 150.085 115.4 150.22C122.4 152.57 128.29 147.42 128.68 139.52C128.68 139.13 128.68 138.74 128.68 138.36C128.759 137.63 129.096 136.951 129.629 136.446C130.161 135.941 130.857 135.641 131.59 135.6C132.301 135.545 133.007 135.753 133.575 136.184C134.143 136.616 134.532 137.24 134.67 137.94C135.163 140.967 134.72 144.072 133.4 146.84C132.538 149.199 131.115 151.314 129.255 153.002C127.394 154.69 125.152 155.9 122.72 156.53C121.348 156.842 119.946 156.999 118.54 157Z" fill="#BC3C2D"/>
<path d="M126.35 137.88C126.267 139.917 125.742 141.911 124.811 143.724C123.88 145.537 122.566 147.126 120.96 148.38C120.658 148.664 120.302 148.884 119.914 149.026C119.525 149.169 119.112 149.232 118.698 149.212C118.285 149.191 117.88 149.088 117.507 148.907C117.134 148.726 116.802 148.472 116.53 148.16C116.26 147.862 116.053 147.513 115.92 147.134C115.788 146.754 115.733 146.352 115.759 145.951C115.786 145.55 115.892 145.158 116.073 144.799C116.253 144.44 116.504 144.121 116.81 143.86C118.337 142.503 119.424 140.72 119.93 138.74C120.16 137.61 120.49 136.14 119.13 135.74C117.77 135.34 117.13 136.65 116.64 137.69C116.28 138.37 116.1 139.15 115.71 139.81C115.421 140.353 114.964 140.788 114.406 141.048C113.849 141.308 113.222 141.379 112.62 141.25C111.977 141.214 111.369 140.943 110.913 140.487C110.458 140.031 110.186 139.424 110.15 138.78C110.114 137.147 110.512 135.533 111.302 134.104C112.093 132.674 113.248 131.479 114.65 130.64C115.784 129.794 117.148 129.312 118.562 129.256C119.976 129.201 121.373 129.575 122.57 130.33C125.39 131.93 126.25 134.63 126.35 137.88Z" fill="#456432"/>
<path d="M128.82 35.6702C134.44 35.5402 139.57 36.7802 143.69 40.9002C144.109 41.2777 144.441 41.7413 144.663 42.2591C144.886 42.7769 144.994 43.3367 144.98 43.9002C144.982 44.5129 144.79 45.1104 144.43 45.6064C144.071 46.1025 143.563 46.4716 142.98 46.6602C142.445 46.8963 141.847 46.9488 141.279 46.8095C140.711 46.6703 140.205 46.347 139.84 45.8902C136.52 42.2302 132.19 41.6702 127.61 42.0402C124.909 42.3125 122.308 43.2058 120.01 44.6502C119.672 44.8893 119.289 45.0572 118.884 45.1435C118.479 45.2298 118.061 45.2329 117.655 45.1524C117.249 45.0719 116.864 44.9097 116.523 44.6755C116.181 44.4413 115.891 44.1401 115.67 43.7902C115.443 43.4428 115.288 43.053 115.216 42.6443C115.143 42.2357 115.154 41.8165 115.247 41.4121C115.341 41.0076 115.515 40.6263 115.759 40.2909C116.004 39.9554 116.314 39.6729 116.67 39.4602C119.757 37.3509 123.343 36.0858 127.07 35.7902C127.66 35.7002 128.24 35.7002 128.82 35.6702Z" fill="#BC3C2E"/>
<path d="M115.32 183.27C115.35 181.426 115.52 179.588 115.83 177.77C115.928 176.919 116.354 176.14 117.016 175.597C117.679 175.054 118.526 174.789 119.38 174.86C119.799 174.93 120.199 175.085 120.557 175.314C120.914 175.543 121.221 175.843 121.46 176.194C121.698 176.546 121.863 176.942 121.943 177.359C122.024 177.776 122.02 178.205 121.93 178.62C121.14 184.32 121.68 189.8 124.46 194.96C125.424 196.585 126.503 198.139 127.69 199.61C128.93 201.27 128.88 202.83 127.57 204.02C126.26 205.21 124.64 205.13 123.16 203.75C120.664 201.292 118.744 198.31 117.54 195.02C116.001 191.297 115.246 187.297 115.32 183.27Z" fill="#BC3D2F"/>
<path d="M63.84 48.1401C63.68 53.1401 62.56 57.5501 59.72 61.4401C59.3456 61.9805 58.8124 62.3911 58.1942 62.615C57.5761 62.839 56.9037 62.8652 56.27 62.6901C55.6953 62.5756 55.1731 62.2779 54.7819 61.8416C54.3906 61.4053 54.1514 60.8539 54.1 60.2701C54.0037 59.2475 54.3044 58.227 54.94 57.4201C56.926 54.2908 57.816 50.5903 57.47 46.9001C57.2839 44.1347 56.2346 41.4975 54.47 39.3601C54.0129 38.956 53.663 38.4449 53.4519 37.8725C53.2407 37.3001 53.1748 36.6842 53.26 36.0801C53.3642 35.5545 53.6073 35.0664 53.964 34.6665C54.3207 34.2666 54.778 33.9696 55.2884 33.8063C55.7987 33.643 56.3435 33.6193 56.8661 33.7378C57.3887 33.8563 57.87 34.1126 58.26 34.4801C60.2168 36.2333 61.676 38.4721 62.49 40.9701C63.3655 43.26 63.8228 45.6886 63.84 48.1401Z" fill="#456432"/>
<path d="M124.5 183.18C124.639 181.117 125.001 179.075 125.58 177.09C126.33 174.143 127.227 171.236 128.27 168.38C128.533 167.637 129.078 167.027 129.788 166.683C130.497 166.338 131.313 166.287 132.06 166.54C132.757 166.772 133.349 167.245 133.73 167.873C134.111 168.501 134.256 169.244 134.14 169.97C134.028 170.685 133.861 171.39 133.64 172.08C132.8 175.08 131.64 178.03 131.08 181.08C130.77 182.445 130.743 183.859 131.001 185.235C131.259 186.611 131.796 187.92 132.58 189.08C133.106 189.835 133.552 190.642 133.91 191.49C134.22 192.129 134.284 192.861 134.091 193.545C133.897 194.229 133.459 194.818 132.86 195.2C132.563 195.43 132.223 195.599 131.861 195.697C131.498 195.794 131.119 195.819 130.747 195.768C130.374 195.718 130.016 195.594 129.692 195.404C129.368 195.213 129.085 194.961 128.86 194.66C126.089 191.473 124.543 187.403 124.5 183.18Z" fill="#456432"/>
<path d="M121.01 118.52C123.641 118.516 126.222 119.246 128.46 120.63C130.699 122.013 132.507 123.994 133.68 126.35C134.368 127.684 134.712 129.169 134.68 130.67C134.72 131.304 134.537 131.932 134.163 132.445C133.788 132.959 133.246 133.325 132.63 133.48C132.06 133.692 131.435 133.708 130.854 133.527C130.274 133.346 129.769 132.978 129.42 132.48C129.05 132.028 128.781 131.503 128.63 130.94C127.23 126.35 123.76 124.2 118.93 124.94C117.339 125.132 115.81 125.671 114.45 126.52C114.046 126.788 113.609 127.004 113.15 127.16C112.464 127.419 111.708 127.428 111.016 127.187C110.323 126.946 109.737 126.469 109.36 125.84C109 125.168 108.904 124.386 109.089 123.647C109.273 122.908 109.727 122.263 110.36 121.84C112.6 119.93 117.08 118.5 121.01 118.52Z" fill="#E8892B"/>
<path d="M34.82 59.6501C33.25 59.5301 31.23 59.6501 29.57 58.2301C29.1071 57.8305 28.7714 57.3041 28.6043 56.7159C28.4373 56.1276 28.4462 55.5034 28.63 54.9201C28.7872 54.3867 29.0992 53.9119 29.5264 53.5558C29.9537 53.1998 30.4769 52.9786 31.03 52.9201C31.6562 52.8403 32.2924 52.9194 32.88 53.1501C33.7114 53.4096 34.5893 53.4849 35.4527 53.371C36.3161 53.257 37.1444 52.9564 37.88 52.4901C38.2054 52.2809 38.4855 52.0084 38.7036 51.6889C38.9218 51.3694 39.0736 51.0094 39.15 50.6301C39.251 50.3554 39.2727 50.0578 39.2126 49.7713C39.1525 49.4848 39.0129 49.2211 38.81 49.0101C38.32 48.5701 37.93 49.1001 37.51 49.2901C36.8797 49.6149 36.1562 49.7107 35.4631 49.5611C34.7699 49.4115 34.1503 49.0259 33.71 48.4701C33.2436 47.8451 33.0034 47.0801 33.0288 46.3006C33.0543 45.5211 33.3438 44.7734 33.85 44.1801C34.5713 43.2922 35.5485 42.6478 36.6489 42.3347C37.7492 42.0216 38.9193 42.0549 40 42.4301C45.25 43.9901 47.29 50.7601 43.84 55.3001C42.7847 56.6836 41.4178 57.7986 39.8505 58.5545C38.2832 59.3103 36.5597 59.6857 34.82 59.6501Z" fill="#456432"/>
<path d="M127.19 56.1201C135.74 56.1201 139.96 63.4801 138.99 70.4101C138.956 70.8093 138.843 71.1979 138.659 71.5537C138.475 71.9094 138.222 72.2254 137.916 72.4836C137.609 72.7417 137.255 72.937 136.873 73.0582C136.491 73.1795 136.089 73.2243 135.69 73.1901C135.291 73.156 134.902 73.0435 134.546 72.8592C134.191 72.6749 133.875 72.4223 133.617 72.1159C133.358 71.8094 133.163 71.4552 133.042 71.0733C132.921 70.6914 132.876 70.2894 132.91 69.8901C132.999 68.6355 132.86 67.3751 132.5 66.1701C130.95 62.1701 127.44 61.6301 124.16 62.9801C123.471 63.3234 122.803 63.7074 122.16 64.1301C121.467 64.5993 120.617 64.7773 119.794 64.6258C118.971 64.4742 118.241 64.0053 117.76 63.3201C117.329 62.6128 117.186 61.767 117.361 60.9574C117.536 60.1478 118.015 59.4364 118.7 58.9701C121.144 57.1201 124.125 56.1193 127.19 56.1201Z" fill="#BC3C2E"/>
<path d="M120.66 166.17C116.655 166.057 112.695 165.301 108.93 163.93C103.65 161.8 101.03 157.48 101.75 151.87C101.836 151.121 102.194 150.43 102.757 149.929C103.319 149.427 104.046 149.15 104.8 149.15C105.554 149.15 106.281 149.427 106.843 149.929C107.406 150.43 107.764 151.121 107.85 151.87C107.875 152.109 107.875 152.351 107.85 152.59C107.54 155.52 108.54 157.22 112.04 158.49C115.05 159.417 118.181 159.892 121.33 159.9C122.059 159.87 122.779 160.071 123.386 160.475C123.993 160.879 124.457 161.466 124.71 162.15C124.839 162.595 124.867 163.064 124.794 163.521C124.72 163.979 124.546 164.414 124.284 164.797C124.022 165.179 123.679 165.499 123.279 165.733C122.879 165.967 122.432 166.109 121.97 166.15C121.534 166.187 121.097 166.194 120.66 166.17Z" fill="#E8892B"/>
<path d="M1.57002 51.0998C1.63002 45.4698 3.96001 40.6298 6.81001 35.9698C7.34503 35.0488 7.95369 34.1726 8.63001 33.3498C8.85441 33.0165 9.14345 32.7318 9.47999 32.5123C9.81653 32.2929 10.1937 32.1433 10.5892 32.0725C10.9846 32.0016 11.3903 32.0108 11.7821 32.0997C12.1739 32.1886 12.5438 32.3552 12.87 32.5898C13.5313 33.0573 13.9819 33.7665 14.1242 34.5638C14.2664 35.3612 14.0889 36.1824 13.63 36.8498C12.33 39.1098 10.81 41.2298 9.71002 43.6198C8.01309 46.8638 7.49694 50.597 8.25001 54.1798C8.42856 54.8317 8.45592 55.5157 8.33001 56.1798C8.22364 56.8051 7.92178 57.3807 7.46781 57.8237C7.01385 58.2667 6.43114 58.5545 5.80339 58.6456C5.17563 58.7367 4.53515 58.6265 3.97396 58.3308C3.41278 58.0351 2.95977 57.5691 2.68002 56.9998C1.86314 55.1441 1.48337 53.1255 1.57002 51.0998Z" fill="#BC3D2F"/>
<path d="M142.08 165.1C141.99 168.04 143 171.02 143.23 174.1C143.437 176.176 143.174 178.273 142.461 180.234C141.748 182.196 140.603 183.971 139.11 185.43C138.587 185.982 137.874 186.316 137.114 186.362C136.355 186.408 135.606 186.165 135.02 185.68C134.412 185.215 134.011 184.531 133.902 183.773C133.794 183.016 133.987 182.246 134.44 181.63C137.52 178.13 137.31 174.23 136.29 170.12C135.786 167.85 135.624 165.518 135.81 163.2C135.788 162.293 136.12 161.412 136.736 160.746C137.352 160.079 138.204 159.679 139.11 159.63C140.74 159.63 142.04 161.27 142.11 163.3C142.08 163.85 142.08 164.38 142.08 165.1Z" fill="#E8892A"/>
<path d="M63.15 5.8602C63.15 5.5302 63.07 5.1902 63.07 4.8602C63.0374 4.02892 63.3219 3.21635 63.8659 2.58694C64.4099 1.95754 65.1728 1.55835 66 1.47021C66.8287 1.50592 67.6147 1.84781 68.2059 2.42972C68.797 3.01162 69.1512 3.79215 69.2 4.62021C69.7022 9.42504 70.4667 14.1988 71.49 18.9202C71.9347 20.5 72.5134 22.0389 73.22 23.5202C74.09 25.4702 73.7 27.0702 72.22 27.9502C70.74 28.8302 69.06 28.2802 67.89 26.5102C66.15 23.9102 65.48 20.9002 64.89 17.9102C64.049 13.9356 63.4678 9.91038 63.15 5.8602Z" fill="#476632"/>
<path d="M29.15 95.6198C29.2053 96.2401 29.0485 96.8608 28.7052 97.3803C28.3618 97.8999 27.8523 98.2875 27.26 98.4798C26.6491 98.7304 25.9715 98.768 25.3366 98.5866C24.7017 98.4052 24.1463 98.0154 23.76 97.4798C23.01 96.5898 22.41 95.5998 21.57 94.7698C19.88 93.0898 17.7 92.2298 15.66 91.1498C13.227 90.0408 11.0639 88.4167 9.32 86.3898C7.72 84.3898 8.07999 82.0698 10.09 81.0998C10.5224 80.8105 11.0394 80.6749 11.5581 80.7148C12.0768 80.7547 12.567 80.9678 12.95 81.3198C15.7 84.5198 19.61 85.8998 23.06 88.0098C25.2458 89.3691 27.0927 91.2091 28.46 93.3898C28.9341 94.0345 29.1772 94.8201 29.15 95.6198Z" fill="#BC3D2F"/>
<path d="M42.08 97.0002C40.1446 96.946 38.219 96.7049 36.33 96.2802C35.0436 96.004 33.8261 95.4711 32.7505 94.7133C31.6748 93.9556 30.7631 92.9886 30.07 91.8702C28.8655 89.9434 27.529 88.1023 26.07 86.3602C25.4843 85.7983 25.145 85.0273 25.1263 84.2158C25.1075 83.4044 25.4109 82.6186 25.97 82.0302C27.19 80.7902 28.72 80.7202 30.29 81.9602C31.8943 83.1557 33.1873 84.7198 34.06 86.5202C35.53 89.7402 38.16 90.6702 41.37 90.7602C42.0963 90.7821 42.8192 90.8691 43.53 91.0202C44.309 91.1081 45.0288 91.478 45.5539 92.0601C46.0789 92.6422 46.3727 93.3963 46.38 94.1802C46.22 95.9902 45.03 96.9702 42.98 97.0002H42.08Z" fill="#E8892A"/>
<path d="M131.24 94.9199C130.88 90.7499 135.54 86.4599 140.09 86.2199C141.537 86.0919 142.993 86.3078 144.34 86.8499C146.34 87.7299 147.17 89.2999 146.58 90.9899C145.99 92.6799 144.4 93.2899 142.35 92.7699C141.766 92.5409 141.137 92.4506 140.512 92.5061C139.888 92.5616 139.284 92.7615 138.75 93.0899C138.11 93.5399 137.44 94.0899 137.45 94.8999C137.46 95.7099 138.36 95.8999 139.02 96.1799C139.645 96.4433 140.162 96.9108 140.488 97.5061C140.813 98.1014 140.927 98.7893 140.811 99.4576C140.695 100.126 140.356 100.735 139.849 101.186C139.342 101.637 138.697 101.903 138.02 101.94C134.35 102.25 131.27 99.0599 131.24 94.9199Z" fill="#476532"/>
<path d="M102.19 139C102.29 135.912 102.933 132.865 104.09 130C104.325 129.356 104.769 128.809 105.35 128.447C105.932 128.084 106.618 127.927 107.3 128C107.975 128.105 108.6 128.42 109.085 128.902C109.57 129.383 109.89 130.005 110 130.68C110.075 131.404 109.958 132.135 109.66 132.8C108.951 134.955 108.56 137.202 108.5 139.47C108.5 141.29 108.85 142.83 110.81 143.7C111.141 143.883 111.431 144.13 111.665 144.427C111.898 144.724 112.07 145.065 112.17 145.429C112.269 145.794 112.295 146.174 112.245 146.549C112.196 146.923 112.071 147.284 111.88 147.61C111.466 148.332 110.8 148.874 110.009 149.133C109.219 149.392 108.36 149.348 107.6 149.01C104.37 147.9 103 145.36 102.45 142.23C102.27 141.09 102.27 140 102.19 139Z" fill="#BB3D2F"/>
<path d="M127.38 26.83C127.38 22.12 129.91 19.08 134.25 18.72C135.513 18.6007 136.785 18.8382 137.92 19.4057C139.055 19.9732 140.007 20.8478 140.67 21.93C141.101 22.5374 141.29 23.2833 141.201 24.0225C141.113 24.7618 140.752 25.4417 140.19 25.93C139.688 26.432 139.019 26.7311 138.31 26.7698C137.601 26.8086 136.903 26.5843 136.35 26.14C136.312 26.1069 136.272 26.0767 136.23 26.05C135.55 25.71 135.02 24.58 134.14 25.29C133.26 26 133.56 27.01 133.84 27.88C134.146 28.6409 134.517 29.3737 134.95 30.07C135.368 30.7591 135.511 31.5807 135.35 32.3704C135.188 33.1602 134.735 33.86 134.08 34.33C133.751 34.5622 133.378 34.7257 132.984 34.8107C132.591 34.8958 132.184 34.9007 131.788 34.8251C131.392 34.7495 131.016 34.595 130.681 34.3707C130.347 34.1465 130.06 33.8572 129.84 33.52C128.32 31.49 127.13 29.35 127.38 26.83Z" fill="#476532"/>
<path d="M63.18 80.0002C62.92 77.0902 63.98 75.5302 65.73 75.2702C67.48 75.0102 68.73 76.2702 69.21 78.2702C70.11 81.7702 70.4 85.4002 71.47 88.8702C71.73 89.8453 72.186 90.7571 72.81 91.5502C74.08 93.0602 74.03 94.6502 72.81 95.8502C72.2188 96.3992 71.4473 96.7133 70.6408 96.7336C69.8342 96.7539 69.048 96.4788 68.43 95.9602C67.1264 94.9289 66.1958 93.4996 65.78 91.8902C64.5 87.7702 63.9 83.4602 63.18 80.0002Z" fill="#476632"/>
<path d="M21.51 68.4497C21.4726 69.5331 21.1064 70.5795 20.46 71.4497C17.2181 76.1894 12.2378 79.4592 6.59998 80.5497C5.81436 80.7467 4.9831 80.6345 4.27782 80.2362C3.57255 79.838 3.0471 79.1842 2.80998 78.4097C2.35998 76.5797 3.18998 75.1797 5.15998 74.5297C6.60573 74.1328 8.01969 73.628 9.38998 73.0197C12.1159 71.7045 14.3737 69.5863 15.86 66.9497C16.1745 66.3108 16.7138 65.8105 17.3744 65.5447C18.0351 65.279 18.7707 65.2665 19.44 65.5097C20.0732 65.6823 20.6265 66.0703 21.0043 66.607C21.3822 67.1437 21.561 67.7954 21.51 68.4497Z" fill="#E7892B"/>
<path d="M152.8 142C152.633 147.303 150.543 152.364 146.92 156.24C145.48 157.83 143.8 158.02 142.42 156.92C141.04 155.82 140.81 153.97 142.17 152.26C144.054 150.105 145.401 147.535 146.1 144.76C146.401 143.289 146.549 141.791 146.54 140.29C146.54 138.15 147.54 136.85 149.32 136.68C150.87 136.53 152.22 137.76 152.6 139.74C152.705 140.489 152.771 141.244 152.8 142Z" fill="#E7892B"/>
<path d="M142.5 120.56C142.44 118.43 143.4 117.15 145.02 116.92C145.824 116.827 146.634 117.037 147.292 117.508C147.95 117.98 148.409 118.679 148.58 119.47C148.92 120.62 149.21 121.79 149.51 122.96C149.804 124.372 150.478 125.678 151.46 126.735C152.441 127.793 153.693 128.562 155.08 128.96C155.603 129.084 156.083 129.346 156.47 129.719C156.857 130.092 157.137 130.562 157.28 131.08C157.453 131.591 157.475 132.141 157.344 132.664C157.212 133.187 156.933 133.661 156.54 134.03C156.135 134.451 155.623 134.753 155.06 134.905C154.496 135.056 153.901 135.051 153.34 134.89C151.213 134.367 149.251 133.317 147.636 131.837C146.022 130.357 144.805 128.494 144.1 126.42C143.356 124.53 142.82 122.565 142.5 120.56Z" fill="#476632"/>
<path d="M16.8 58.5602C16.68 62.4302 14.49 65.3302 11.34 67.6102C9.09 69.2402 6.71 70.6102 3.83 70.7602C3.13062 70.8254 2.4325 70.6234 1.87596 70.1949C1.31942 69.7663 0.945725 69.143 0.830003 68.4502C0.6799 67.7298 0.794408 66.9795 1.15254 66.3367C1.51068 65.6939 2.08845 65.2017 2.78 64.9502C4.81865 64.3039 6.72051 63.2869 8.39 61.9502C9.01447 61.4527 9.53337 60.8356 9.91629 60.135C10.2992 59.4344 10.5384 58.6644 10.62 57.8702C10.79 55.6302 12.17 54.3702 14.03 54.5302C15.89 54.6902 16.83 56.1102 16.8 58.5602Z" fill="#476632"/>
<path d="M108.2 208.43L109.97 208.66C111.575 208.947 113.22 208.913 114.811 208.559C116.403 208.206 117.908 207.54 119.24 206.6C119.699 206.245 120.199 205.946 120.73 205.71C121.327 205.44 121.995 205.373 122.634 205.519C123.272 205.665 123.845 206.016 124.266 206.518C124.686 207.02 124.931 207.645 124.962 208.3C124.994 208.954 124.81 209.6 124.44 210.14C123.769 211.098 122.877 211.88 121.84 212.42C119.657 213.736 117.231 214.599 114.707 214.958C112.184 215.317 109.614 215.165 107.15 214.51C106.47 214.404 105.84 214.087 105.348 213.605C104.857 213.122 104.529 212.498 104.41 211.82C104.295 211.269 104.345 210.697 104.553 210.174C104.761 209.652 105.118 209.202 105.58 208.88C106.32 208.29 107.14 208.48 108.2 208.43Z" fill="#E7892B"/>
<path d="M29.97 6.25015C35.04 6.73015 41.89 10.4301 43.97 16.5801C44.2886 17.3509 44.2958 18.2153 43.9899 18.9912C43.684 19.7672 43.0889 20.3941 42.33 20.7401C41.9778 20.9153 41.5924 21.0135 41.1993 21.0282C40.8062 21.0428 40.4145 20.9735 40.0503 20.825C39.686 20.6765 39.3576 20.4521 39.0869 20.1667C38.8161 19.8814 38.6092 19.5417 38.48 19.1702C36.81 15.1702 33.56 13.4001 29.67 12.3701C29.0986 12.2547 28.5594 12.0158 28.09 11.6702C27.5381 11.3064 27.1265 10.7655 26.9229 10.1367C26.7194 9.50777 26.736 8.82832 26.97 8.21014C27.1719 7.59053 27.5794 7.05849 28.125 6.70205C28.6705 6.34561 29.3215 6.18617 29.97 6.25015Z" fill="#476532"/>
<path d="M14.14 45.9299C14.1429 42.5108 14.7734 39.1213 16 35.9299C16.3517 35.0251 16.8746 34.1967 17.54 33.4899C17.9532 33.0014 18.5237 32.6722 19.1534 32.559C19.7831 32.4458 20.4326 32.5558 20.99 32.8699C21.5716 33.1313 22.0474 33.5822 22.3398 34.1488C22.6322 34.7154 22.7239 35.3644 22.6 35.9899C22.5711 36.3345 22.4867 36.6722 22.35 36.9899C20.35 40.6899 20.35 44.6999 20.5 48.7399C20.5 48.9799 20.5 49.2199 20.5 49.4599C20.56 51.7199 19.43 53.1499 17.56 53.1799C15.69 53.2099 14.39 51.7799 14.4 49.6199C14.44 48.2799 13.98 46.9999 14.14 45.9299Z" fill="#E8892B"/>
<path d="M111.37 192.14C106.15 192.38 101.88 189.97 97.74 187.23C96.9193 186.713 96.1754 186.084 95.53 185.36C94.35 183.96 94.24 182.36 95.28 181.16C95.8074 180.545 96.554 180.161 97.3608 180.088C98.1676 180.015 98.9709 180.26 99.6 180.77C101.135 181.942 102.742 183.017 104.41 183.99C106.05 184.831 107.773 185.501 109.55 185.99C113.46 187.15 114.05 189.16 111.36 192.21L111.37 192.14Z" fill="#476532"/>
<path d="M156.24 64.9998C156.218 66.8232 155.677 68.6026 154.68 70.1293C153.683 71.6561 152.271 72.8669 150.61 73.6198C149.399 74.2382 148.106 74.6794 146.77 74.9298C145.962 75.1363 145.105 75.0241 144.377 74.6165C143.649 74.2088 143.106 73.5369 142.86 72.7398C142.45 70.9898 143.27 69.6098 145.15 68.9298C145.92 68.6498 146.72 68.4498 147.48 68.1398C148.357 67.8843 149.097 67.2913 149.538 66.4908C149.979 65.6902 150.084 64.7476 149.83 63.8698C149.715 63.3028 149.645 62.7277 149.62 62.1498C149.547 61.4132 149.768 60.6777 150.234 60.1029C150.7 59.5281 151.374 59.1604 152.11 59.0797C152.808 58.9554 153.527 59.082 154.14 59.4371C154.753 59.7922 155.221 60.3528 155.46 61.0197C155.883 62.3092 156.145 63.646 156.24 64.9998Z" fill="#BB3D2F"/>
<path d="M52.88 19.4499C52.88 21.3999 51.82 22.8599 50 22.9499C49.5971 23 49.1881 22.9631 48.8006 22.8417C48.4131 22.7203 48.0562 22.5173 47.7538 22.2462C47.4515 21.9752 47.2108 21.6424 47.048 21.2704C46.8852 20.8985 46.804 20.4959 46.81 20.0899C46.4846 15.9781 45.2699 11.9861 43.25 8.38994C42.8239 7.69749 42.6899 6.86427 42.8774 6.07314C43.0648 5.282 43.5585 4.59755 44.25 4.16994C44.5955 3.96244 44.9792 3.82667 45.3783 3.77074C45.7774 3.71481 46.1836 3.73984 46.5728 3.84438C46.962 3.94891 47.3262 4.13078 47.6435 4.37914C47.9609 4.6275 48.225 4.93727 48.42 5.28993C51.1332 9.53223 52.6722 14.4185 52.88 19.4499Z" fill="#E8892B"/>
<path d="M108.78 182.23C104.379 181.579 100.221 179.802 96.71 177.07C96.3738 176.847 96.087 176.558 95.8674 176.22C95.6478 175.882 95.5002 175.502 95.4336 175.104C95.367 174.707 95.3829 174.299 95.4804 173.908C95.5778 173.517 95.7547 173.15 96 172.83C96.4507 172.184 97.1375 171.741 97.9122 171.596C98.6868 171.452 99.487 171.619 100.14 172.06C102.415 173.538 104.885 174.689 107.48 175.48C108.37 175.7 109.26 175.92 110.16 176.1C112.45 176.56 113.4 177.6 113.23 179.54C113.08 181.28 111.75 182.27 108.78 182.23Z" fill="#BB3D2F"/>
<path d="M78.92 14.5701C78.92 17.4901 77.81 18.7601 75.68 18.6701C75.0188 18.6803 74.3763 18.4511 73.8708 18.0247C73.3654 17.5983 73.0313 17.0035 72.93 16.3501C72.31 12.0501 71.73 7.74007 71.22 3.43007C71.1043 2.65276 71.2983 1.86112 71.7602 1.22532C72.2221 0.589526 72.915 0.16035 73.69 0.0300714C74.4935 -0.0878307 75.3116 0.108151 75.9745 0.577374C76.6373 1.0466 77.0941 1.75302 77.25 2.55006C78.0516 6.51887 78.6093 10.5331 78.92 14.5701Z" fill="#BB3D2F"/>
<path d="M41.84 75.2999C41.7803 73.2005 42.5325 71.1589 43.94 69.5999C46.0333 67.3567 48.7045 65.7339 51.66 64.9099C52.2697 64.711 52.9312 64.7427 53.5191 64.9989C54.107 65.2551 54.5805 65.718 54.85 66.2999C55.2123 66.8249 55.3823 67.4589 55.3313 68.0948C55.2803 68.7306 55.0114 69.3294 54.57 69.7899C54.1115 70.2922 53.5617 70.7028 52.95 70.9999C51.6895 71.6142 50.4792 72.3264 49.33 73.1299C48.8876 73.431 48.5454 73.8576 48.3476 74.3549C48.1497 74.8521 48.1053 75.3972 48.22 75.9199C48.56 78.0799 47.54 79.5599 45.6 79.8399C44.7449 79.8977 43.8999 79.6266 43.2381 79.0819C42.5764 78.5372 42.1477 77.7602 42.04 76.9099C41.92 76.2999 41.89 75.6599 41.84 75.2999Z" fill="#E7892B"/>
<path d="M117.77 28.9998C117.713 26.4302 118.05 23.8671 118.77 21.3998C118.928 20.6354 119.274 19.9225 119.777 19.3254C120.28 18.7283 120.924 18.2659 121.65 17.9798C122.129 17.7955 122.652 17.7561 123.153 17.8663C123.654 17.9765 124.112 18.2316 124.47 18.5998C125.28 19.3698 125.94 20.4098 125.47 21.4598C123.77 25.0598 124.32 28.8598 124.29 32.6098C124.339 33.0588 124.281 33.5131 124.121 33.9354C123.961 34.3577 123.703 34.736 123.368 35.0394C123.033 35.3428 122.632 35.5627 122.196 35.6809C121.76 35.7992 121.302 35.8125 120.86 35.7198C120.15 35.6593 119.487 35.3412 118.995 34.8255C118.503 34.3097 118.217 33.632 118.19 32.9198C117.946 31.6264 117.806 30.3156 117.77 28.9998Z" fill="#BB3D2F"/>
<path d="M22.08 24.14C25.67 24.14 29.66 27.1899 30.18 30.5299C30.3162 31.1685 30.2323 31.8344 29.9417 32.4191C29.6512 33.0038 29.1712 33.4729 28.58 33.7499C27.9934 34.0176 27.3363 34.0892 26.7059 33.9541C26.0754 33.819 25.5053 33.4844 25.08 32.9999L24.8 32.67C22.62 29.87 22.62 29.8699 19.41 31.1499C17.56 31.8899 15.91 31.42 15.13 29.92C14.35 28.42 14.89 26.78 16.58 25.73C18.2087 24.6523 20.1275 24.0976 22.08 24.14Z" fill="#476532"/>
<path d="M180.76 176.14C180.01 179.19 180.76 182.62 180.68 186.04C180.695 186.773 180.454 187.488 179.997 188.061C179.541 188.635 178.898 189.031 178.18 189.18C177.506 189.277 176.819 189.159 176.216 188.843C175.612 188.527 175.124 188.029 174.82 187.42C174.576 186.894 174.453 186.32 174.46 185.74C173.948 182.255 173.992 178.711 174.59 175.24C174.723 174.416 175.163 173.674 175.822 173.162C176.481 172.649 177.309 172.406 178.14 172.48C179.67 172.66 180.8 174.07 180.76 176.14Z" fill="#476632"/>
<path d="M103.08 192.13C103.799 192.099 104.514 192.256 105.154 192.585C105.795 192.915 106.338 193.406 106.73 194.01C108.683 196.96 110.004 200.284 110.61 203.77C110.756 204.521 110.61 205.3 110.201 205.947C109.792 206.594 109.151 207.06 108.41 207.25C107.676 207.469 106.887 207.4 106.202 207.056C105.518 206.712 104.991 206.12 104.73 205.4C104.2 204.12 103.8 202.77 103.37 201.4C102.9 199.718 102.064 198.16 100.92 196.84C100.544 196.418 100.312 195.887 100.258 195.324C100.204 194.761 100.331 194.196 100.62 193.71C100.815 193.223 101.157 192.81 101.597 192.527C102.038 192.243 102.557 192.105 103.08 192.13Z" fill="#BB3D2F"/>
<path d="M121.29 95.86C121.307 95.229 121.494 94.6142 121.83 94.08C122.976 91.7333 123.875 89.2733 124.51 86.74C124.625 86.323 124.779 85.9179 124.97 85.53C125.237 84.8178 125.76 84.2306 126.437 83.883C127.113 83.5354 127.895 83.4524 128.63 83.65C129.35 83.893 129.962 84.3822 130.357 85.0315C130.752 85.6809 130.905 86.4487 130.79 87.2C130.104 90.8598 128.816 94.3807 126.98 97.62C126.631 98.3066 126.032 98.8329 125.306 99.0898C124.58 99.3467 123.783 99.3145 123.08 99C121.71 98.5 121.24 97.39 121.29 95.86Z" fill="#BB3D2F"/>
<path d="M123.93 76.79C123.989 74.8612 123.648 72.941 122.93 71.15C122.691 70.5212 122.51 69.8718 122.39 69.21C122.29 68.5362 122.422 67.8485 122.765 67.2598C123.108 66.6712 123.641 66.2167 124.276 65.9712C124.911 65.7257 125.611 65.7037 126.261 65.9088C126.911 66.114 127.471 66.5341 127.85 67.1C129.011 68.911 129.743 70.9632 129.99 73.1C130.448 74.9382 130.483 76.8566 130.09 78.71C129.56 80.64 128.47 81.51 126.54 81.32C124.93 81.15 123.98 79.94 123.97 78.03L123.93 76.79Z" fill="#476532"/>
<path d="M55.21 90.6302C55.2777 91.2878 55.1655 91.9515 54.8855 92.5503C54.6055 93.1491 54.1681 93.6606 53.62 94.0302C53.1919 94.287 52.7065 94.4329 52.2077 94.4547C51.709 94.4765 51.2127 94.3735 50.7638 94.1551C50.3149 93.9366 49.9277 93.6095 49.6372 93.2036C49.3466 92.7976 49.162 92.3256 49.1 91.8302C48.8128 89.9089 47.7866 88.1758 46.24 87.0002C45.7644 86.7116 45.3635 86.3148 45.0698 85.8423C44.7762 85.3697 44.5981 84.8345 44.55 84.2802C44.505 83.725 44.6155 83.1682 44.8692 82.6722C45.1228 82.1762 45.5095 81.7606 45.986 81.472C46.4625 81.1834 47.01 81.0332 47.567 81.0382C48.1241 81.0432 48.6687 81.2032 49.14 81.5002C52.62 83.6002 54.82 86.5102 55.21 90.6302Z" fill="#476632"/>
<path d="M111.36 192.16C114.17 192.02 115.5 193.58 116.2 196.16C116.71 198.01 117.57 199.77 118.2 201.6C118.415 202.117 118.516 202.674 118.496 203.233C118.475 203.793 118.333 204.341 118.08 204.84C117.809 205.343 117.4 205.758 116.901 206.036C116.402 206.315 115.833 206.445 115.263 206.411C114.693 206.377 114.144 206.181 113.681 205.847C113.218 205.512 112.86 205.051 112.65 204.52C111.6 201.82 110.65 199.08 109.72 196.32C109.19 194.7 109.65 193.74 111.09 192.75C111.31 192.6 111.48 192.46 111.37 192.17L111.36 192.16Z" fill="#E7892B"/>
<path d="M184.26 160.41C184.793 160.381 185.323 160.499 185.794 160.749C186.265 161 186.659 161.375 186.933 161.833C187.206 162.29 187.35 162.814 187.348 163.348C187.345 163.882 187.198 164.404 186.92 164.86C185.404 167.225 183.432 169.264 181.12 170.86C180.543 171.231 179.855 171.387 179.175 171.301C178.494 171.215 177.866 170.893 177.4 170.39C176.893 169.824 176.605 169.095 176.591 168.335C176.576 167.575 176.835 166.835 177.32 166.25C178.84 164.49 180.49 162.85 182.13 161.25C182.393 160.952 182.724 160.72 183.094 160.574C183.464 160.428 183.864 160.372 184.26 160.41Z" fill="#E7892B"/>
<path d="M71.42 73.6699C70.9217 73.6984 70.4245 73.5991 69.9753 73.3815C69.5262 73.1639 69.1401 72.8352 68.8536 72.4265C68.5671 72.0178 68.3898 71.5428 68.3384 71.0463C68.287 70.5499 68.3633 70.0486 68.56 69.5899C69.35 67.5899 70.21 65.5899 70.86 63.5099C71.0623 62.8486 71.5021 62.2855 72.0948 61.9292C72.6874 61.5728 73.391 61.4484 74.07 61.5799C74.7834 61.6427 75.4471 61.9718 75.9289 62.5018C76.4107 63.0318 76.6753 63.7237 76.67 64.4399C76.624 67.5182 75.4945 70.4819 73.48 72.8099C73.2467 73.1264 72.9319 73.3736 72.5691 73.5251C72.2062 73.6766 71.8091 73.7267 71.42 73.6699Z" fill="#BB3D2F"/>
<path d="M129.74 164.58C129.181 164.627 128.621 164.51 128.127 164.243C127.633 163.977 127.228 163.573 126.96 163.08C126.655 162.604 126.506 162.044 126.535 161.479C126.563 160.914 126.768 160.373 127.12 159.93C128.646 157.92 130.432 156.121 132.43 154.58C132.727 154.322 133.073 154.128 133.448 154.009C133.822 153.89 134.217 153.85 134.608 153.89C134.999 153.93 135.378 154.051 135.72 154.243C136.063 154.436 136.362 154.697 136.6 155.01C137.119 155.605 137.383 156.38 137.335 157.168C137.286 157.956 136.929 158.694 136.34 159.22C134.99 160.67 133.57 162.07 132.17 163.47C131.876 163.827 131.504 164.113 131.083 164.305C130.662 164.497 130.203 164.591 129.74 164.58Z" fill="#BB3D2F"/>
</svg>
